<?xml version="1.0" encoding="UTF-8" standalone="no"?>
<svg
   width="997.2395"
   height="471.55557"
   viewBox="0 0 997.2395 471.55557"
   version="1.1"
   xml:space="preserve"
   style="clip-rule:evenodd;fill-rule:evenodd;stroke-linejoin:round;stroke-miterlimit:2"
   id="svg112"
   sodipodi:docname="triops_logo_light.svg"
   inkscape:version="1.3.2 (091e20e, 2023-11-25)"
   xmlns:inkscape="http://www.inkscape.org/namespaces/inkscape"
   xmlns:sodipodi="http://sodipodi.sourceforge.net/DTD/sodipodi-0.dtd"
   xmlns="http://www.w3.org/2000/svg"
   xmlns:svg="http://www.w3.org/2000/svg"
   xmlns:serif="http://www.serif.com/"><defs
   id="defs112" /><sodipodi:namedview
   id="namedview112"
   pagecolor="#ffffff"
   bordercolor="#000000"
   borderopacity="0.25"
   inkscape:showpageshadow="2"
   inkscape:pageopacity="0.0"
   inkscape:pagecheckerboard="0"
   inkscape:deskcolor="#d1d1d1"
   inkscape:zoom="0.21851852"
   inkscape:cx="379.83051"
   inkscape:cy="256.27119"
   inkscape:window-width="1312"
   inkscape:window-height="449"
   inkscape:window-x="0"
   inkscape:window-y="43"
   inkscape:window-maximized="0"
   inkscape:current-layer="svg112" />
    <g
   id="fill-brownish"
   serif:id="fill brownish"
   transform="translate(-461.37988,-304.19928)">
        <g
   transform="translate(82.5374,-199.082)"
   id="g1">
            <path
   d="m 466.144,736.532 c -0.684,-4.183 -2.121,-22.014 14.422,-55.674 6.135,-25.028 11.529,-36.996 30.989,-57.678 13.633,-19.028 33.678,-41.687 61.795,-61.93 3.585,-2.582 32.458,-23.092 47.193,-28.671 1.878,-0.711 3.813,-1.027 5.711,-0.987 0.051,-0.06 0.101,-0.118 0.151,-0.177 3.077,-3.599 5.846,-5.753 8.155,-7.146 l 4.9,-2.261 5.105,-1.01 6.555,0.531 c 6.75,1.485 11.656,7.328 11.951,14.233 0.284,6.669 -3.8,12.717 -10.025,14.974 -0.354,0.423 -0.823,0.96 -1.398,1.566 -0.053,1.324 -0.282,2.662 -0.7,3.984 -4.243,13.427 -6.848,22.769 -8.497,30.602 l 1.334,3.413 0.325,5.743 c -0.181,3.18 -1.201,9.916 -2.846,22.947 1.246,1.653 2.171,3.586 2.667,5.722 0.869,3.751 1.642,6.996 2.393,9.842 1.459,4.072 3.519,9.146 5.559,14.343 4.342,6.766 11.085,10.561 23.774,20.712 4.244,3.395 3.248,4.006 7.184,7.941 0.444,0.445 0.833,0.771 1.199,1.02 4.308,0.941 9.177,2.558 14.711,5.039 7.533,3.377 11.007,12.138 7.836,19.759 -3.171,7.622 -11.835,11.332 -19.54,8.369 -4.157,-1.599 -7.346,-2.692 -9.911,-3.553 -0.493,-0.083 -1.013,-0.147 -1.411,-0.189 -0.374,0.635 -1.069,1.829 -1.878,3.284 4.03,3.555 5.985,9.086 4.831,14.569 -5.691,27.031 -13.711,55.95 -18.922,77.966 -2.055,8.681 -3.573,18.516 -4.298,23.631 3.804,6.262 2.627,14.546 -3.116,19.469 -0.151,0.129 -0.303,0.255 -0.457,0.377 l -0.71,2.909 -1.683,3.502 -2.573,3.245 -3.573,2.748 -3.556,1.584 -4.028,0.828 -2.451,0.001 -0.356,0.568 -5.039,3.545 -6.291,1.316 -5.717,-1.008 c -0.799,-0.281 -1.914,-0.751 -3.372,-1.507 -11.272,-1.867 -50.986,-6.672 -58.511,-10.225 l -5.507,-3.914 -3.339,-5.29 -0.03,-0.189 c -7.989,-0.796 -13.177,-3.999 -15.076,-5.374 -12.635,-1.101 -13.123,-0.499 -24.467,-7.352 l -5.627,-4.548 -3.661,-6.206 -0.625,-3.053 c -8.736,-1.948 -16.431,-5.935 -22.556,-14.102 -9.936,-13.248 -7.682,-14.297 -8.772,-34.422 -0.112,-2.067 0.194,-4.065 0.848,-5.909 -0.394,-1.003 -0.685,-2.06 -0.861,-3.159 -1.39,-8.688 -0.728,-12.898 0.259,-17.158 0.455,-1.967 1.163,-3.946 1.533,-7.59 z M 653.481,550.204 c 0.228,-0.252 0.355,-0.462 0.355,-0.462 0,0 -0.121,0.167 -0.355,0.462 z M 494.393,765.941 c 1.229,0.739 2.659,1.509 4.225,2.186 2.53,1.092 5.597,2.546 8.483,1.215 5.385,-2.486 9.56,-3.681 13.055,-4.573 2.755,-0.702 4.301,-0.804 6.789,-4.785 3.309,-5.295 5.541,-9.619 6.869,-13.224 0.474,-1.287 0.806,-2.826 0.987,-3.801 -1.075,-0.745 -2.8,-1.948 -3.647,-2.586 l -2.988,-3.148 c -2.147,0.556 -5.229,1.349 -8.02,2.047 -3.874,0.968 -7.847,0.361 -11.155,-1.496 -3.543,7.215 -6.131,12.181 -7.139,13.492 l -5.159,5.043 -0.852,0.396 c -0.791,2.802 -1.629,5.772 -1.749,6.206 -0.097,0.352 -0.205,0.699 -0.325,1.039 0.251,0.64 0.46,1.304 0.626,1.989 z m -1.909,-7.677 -1.79,0.831 c 0.022,0.024 0.045,0.048 0.067,0.072 0.543,-0.199 1.108,-0.467 1.723,-0.903 z m 33.714,-23.111 -0.669,-0.705 c 0.196,0.309 0.426,0.533 0.669,0.705 z m 17.388,52.197 c 0.262,1.251 0.369,2.55 0.304,3.873 -0.134,2.746 -0.041,5.142 0.049,7.215 1.265,1.273 2.618,2.673 3.819,3.994 2.164,2.38 3.441,5.272 3.833,8.258 1.844,-0.807 6.625,-2.811 11.376,-6.452 3.731,-2.858 7.862,-6.877 8.612,-12.873 0.848,-6.782 0.888,-12.515 0.859,-14.866 -0.295,-0.331 -0.574,-0.657 -0.781,-0.926 -0.56,-0.728 -1.507,-2.741 -2.371,-4.714 -3.502,0.77 -7.196,0.286 -10.415,-1.422 -0.565,-0.299 -1.106,-0.632 -1.623,-0.995 -1.293,2.434 -2.773,4.997 -4.459,7.695 -3.319,5.311 -6.311,8.792 -9.203,11.213 z m 14.979,22.077 c -0.826,-0.026 -1.749,0.016 -2.772,0.163 z m 18.864,-79.584 c 0.053,-0.236 0.106,-0.47 0.158,-0.7 l -0.241,-0.147 c 0.027,0.281 0.055,0.563 0.083,0.847 z"
   style="fill:#f2dac7"
   id="path1" />
        </g>
        <g
   transform="translate(82.5374,-199.082)"
   id="g2">
            <path
   d="m 635.912,839.95 c 0.125,-0.323 0.262,-0.641 0.41,-0.956 l -0.623,-1.162 -0.994,-4.129 0.083,-3.969 1.721,-5.302 2.017,-2.866 -0.809,-0.874 -2.482,-5.186 -0.738,-3.56 0.091,-3.569 0.942,-3.67 1.897,-3.852 c 2.299,-3.88 8.923,-12.489 16.919,-22.793 -0.28,-0.955 -0.461,-1.92 -0.549,-2.884 -2.266,0.242 -4.609,0.497 -7.034,0.767 -7.436,0.826 -14.371,-3.868 -16.369,-11.078 -1.997,-7.21 1.536,-14.803 8.337,-17.92 2.67,-1.224 5.228,-2.396 7.678,-3.519 1.837,-6.134 7.444,-10.675 14.19,-10.857 l 0.127,0.015 v -0.018 c 3.577,-0.067 6.908,-0.149 10.012,-0.241 2.355,-1.067 4.539,-2.053 6.567,-2.963 -0.041,-0.37 -0.068,-0.744 -0.082,-1.122 -1.388,-0.44 -2.804,-0.951 -3.941,-1.496 -5.982,-2.871 -9.418,-9.282 -8.497,-15.853 0.92,-6.57 5.986,-11.79 12.526,-12.906 23.762,-4.057 23.554,-2.838 47.73,-1.013 4.923,0.372 9.132,3.046 11.636,6.898 0.447,0.037 0.898,0.074 1.354,0.113 10.196,0.873 22.18,2.043 41.245,10.071 4.951,2.084 12.91,1.238 20.884,0.617 11.354,-0.885 22.783,-2.356 30.104,-2.089 2.441,0.089 4.59,0.346 6.396,0.728 l 5.19,1.71 1.783,1.116 c 4.653,0.285 29.326,1.572 39.156,-2.524 4.246,-1.769 8.964,-1.496 12.894,0.547 2.383,0.692 4.63,1.977 6.508,3.854 5.947,5.947 5.947,15.604 0,21.551 -1.728,1.728 -3.704,3.442 -6.291,5.72 -4.116,5.951 -8.83,11.194 -14,15.832 -0.388,0.772 -0.823,1.595 -1.31,2.47 -2.719,4.896 -37.515,51.044 -102.184,70.778 -41.918,22.529 -53.735,23.47 -59.404,24.151 -20.8,2.496 -31,6.101 -39.701,8.454 -10.986,2.971 -20.067,4.51 -38.725,1.524 -6.567,-1.05 -11.694,-6.239 -12.667,-12.819 -0.95,-6.425 2.278,-12.728 8.003,-15.726 z m 212.159,-120.19 0.494,0.497 c -0.113,-0.141 -0.283,-0.31 -0.494,-0.497 z m -22.737,20.116 c 0.009,-0.002 0.018,-0.003 0.028,-0.005 l -0.595,-0.575 c 0.145,0.181 0.339,0.377 0.567,0.58 z"
   style="fill:#f2dac7"
   id="path2" />
        </g>
        <g
   transform="translate(82.5374,-199.082)"
   id="g3">
            <path
   d="m 893.905,714.741 c -0.431,-0.136 -0.728,-0.547 -0.71,-1.012 0.021,-0.523 0.434,-0.945 0.956,-0.978 0.286,-0.018 1.403,-0.087 2.86,-0.156 1.046,-0.754 2.02,-1.055 4.288,-0.876 0.407,0.032 1.598,0.402 2.752,0.738 0.101,0.003 0.201,0.006 0.298,0.01 2.432,-0.546 5.399,-1.232 9.033,-2.101 0.516,-0.124 1.041,0.169 1.207,0.673 0.026,0.078 0.041,0.157 0.048,0.236 0.148,-0.079 0.3,-0.16 0.453,-0.242 0.487,-0.261 1.092,-0.087 1.366,0.391 0.119,0.206 0.157,0.436 0.125,0.654 0.002,0.002 0.004,0.004 0.006,0.007 0.079,0.095 0.138,0.202 0.177,0.313 0.003,0.005 0.007,0.01 0.01,0.015 0.032,0.05 0.059,0.101 0.082,0.155 0.418,-0.271 0.978,-0.201 1.316,0.179 0.293,0.33 0.334,0.8 0.132,1.168 0.335,0.397 0.32,0.992 -0.051,1.371 -0.002,0.003 -0.005,0.005 -0.008,0.008 -2.634,2.696 -4.504,4.625 -5.851,6.022 -0.625,1.02 -1.251,2.038 -1.998,2.968 -5.551,6.898 -6.55,5.783 -12.687,12.235 -0.388,0.408 -1.034,0.424 -1.442,0.036 -0.408,-0.388 -0.424,-1.035 -0.036,-1.442 3.52,-3.701 5.337,-4.885 7.311,-6.553 -0.396,0.215 -0.896,0.146 -1.219,-0.187 -0.188,-0.194 -0.284,-0.446 -0.287,-0.699 -0.062,-0.118 -0.098,-0.244 -0.11,-0.372 -0.413,0.218 -0.934,0.131 -1.25,-0.236 -0.361,-0.418 -0.323,-1.047 0.084,-1.419 0.051,-0.047 0.101,-0.093 0.151,-0.138 -0.432,0.175 -0.941,0.034 -1.217,-0.362 -0.315,-0.45 -0.217,-1.068 0.222,-1.399 0,0 4.332,-3.265 4.337,-3.268 -3.606,1.964 -4.47,2.445 -6.634,3.689 -0.008,0.005 -0.017,0.01 -0.026,0.015 -0.483,0.278 -1.1,0.116 -1.385,-0.363 -0.285,-0.479 -0.132,-1.098 0.343,-1.39 l 0.025,-0.016 0.51,-0.314 c -0.086,-0.078 -0.16,-0.173 -0.217,-0.283 -0.257,-0.495 -0.07,-1.104 0.421,-1.368 0.009,-0.005 0.018,-0.01 0.028,-0.015 1.094,-0.59 2.053,-1.105 2.911,-1.563 -0.556,0.135 -1.11,0.277 -1.658,0.435 l -1.152,0.364 -0.027,0.008 c -0.532,0.168 -1.1,-0.123 -1.276,-0.652 -0.017,-0.054 -0.03,-0.108 -0.039,-0.163 -0.047,0.011 -0.094,0.022 -0.141,0.033 -0.526,0.121 -1.056,-0.189 -1.208,-0.707 -0.089,-0.305 -0.03,-0.619 0.138,-0.864 -0.882,0.141 -1.565,0.236 -1.953,0.265 -0.2,0.015 -0.351,0.014 -0.447,0.006 l -0.343,-0.077 -0.37,-0.244 -0.151,-0.194 -0.112,-0.268 -0.035,-0.278 0.034,-0.248 0.14,-0.313 0.191,-0.218 c 0.528,-0.462 0.907,-0.707 2.085,-1.016 z"
   style="fill:#f2dac7"
   id="path3" />
        </g>
        <g
   transform="translate(82.5374,-199.082)"
   id="g4">
            <path
   d="m 860.644,590.753 c 3.907,2.842 7.284,5.322 9.894,7.248 0.474,0.126 0.944,0.281 1.409,0.465 2.196,0.036 4.409,0.652 6.403,1.899 l 21.04,13.15 c 1.995,1.246 3.518,2.966 4.513,4.925 4.946,2.031 10.948,4.197 20.447,7.569 5.212,1.851 8.587,6.909 8.295,12.432 -0.291,5.523 -4.179,10.197 -9.557,11.49 -0.154,0.037 -0.315,0.078 -0.478,0.121 -0.401,1.258 -0.942,2.918 -1.472,4.42 -1.484,4.209 -5.102,7.307 -9.49,8.126 -0.021,0.004 -0.042,0.008 -0.063,0.012 -0.097,0.417 -0.195,0.795 -0.281,1.057 l -1.102,2.529 c -3.063,5.547 -9.794,7.922 -15.66,5.526 -18.989,-7.756 -20.708,-3.403 -45.152,-15.885 -13.251,-6.766 -58.168,-21.683 -78.406,-43.367 -3.332,-3.57 -5.1,-6.329 -5.984,-8.112 -16.304,-9.341 -20.507,-10.438 -30.661,-29.136 -2.927,-2.258 -9.368,-8.229 -13.042,-19.251 -1.326,-3.977 -0.568,-8.355 2.017,-11.655 2.586,-3.301 6.655,-5.084 10.834,-4.749 16.895,1.355 16.611,0.867 33.442,-0.663 1.803,-0.164 4.806,0.049 8.855,0.527 5.893,0.697 15.381,1.779 27.442,-0.395 4.819,-0.869 9.702,1.158 12.489,5.184 14.331,20.701 32.016,36.74 44.268,46.533 z m 27.092,64.536 c -0.161,0.382 -0.297,0.804 -0.372,1.275 z"
   style="fill:#f2dac7"
   id="path4" />
        </g>
        <g
   transform="translate(82.5374,-199.082)"
   id="g5">
            <path
   d="m 933.137,551.967 c 0.026,-0.149 0.057,-0.294 0.095,-0.435 l 0.414,-1.043 0.759,-1.009 c 1.176,-1.156 3.829,-2.232 8.432,0.645 0.772,0.482 1.374,0.949 1.839,1.383 0.205,-0.03 0.414,-0.061 0.63,-0.092 0.427,-0.415 0.99,-0.695 1.625,-0.768 10.011,-1.137 11.583,-0.986 18.855,-1.038 2.831,-0.324 6.021,-0.611 9.634,-0.833 0.398,-0.024 0.782,0.036 1.134,0.166 4.655,-0.719 10.257,-1.758 18.317,-3.37 11.209,-2.242 11.549,-0.506 25.669,-5.326 3.94,-1.346 15.51,-2.621 16.87,-2.767 1.28,-0.137 2.49,0.622 2.92,1.835 0.25,0.708 0.2,1.463 -0.1,2.109 0.09,0.143 0.17,0.296 0.23,0.457 0.12,0.3 0.18,0.609 0.19,0.914 0.24,0.104 0.47,0.242 0.68,0.411 1.28,-0.115 2.49,0.666 2.9,1.917 0.23,0.718 0.16,1.467 -0.16,2.099 0.05,0.09 0.09,0.184 0.12,0.281 0.12,0.317 0.18,0.643 0.17,0.963 0.9,0.316 1.6,1.076 1.8,2.064 0.31,1.466 -0.6,2.91 -2.05,3.27 -0.17,0.04 -0.56,0.138 -1.14,0.281 -0.03,0.011 -0.07,0.022 -0.11,0.032 -0.16,0.037 -0.31,0.075 -0.47,0.112 -1.67,0.416 -4.32,1.079 -7.16,1.801 -1.18,0.306 -2.23,0.586 -3.16,0.84 l -0.42,0.974 -0.89,0.883 c -0.79,0.569 -2.63,1.369 -2.83,1.45 -3.81,1.59 -7.23,3.041 -10.3,4.368 -2.4,1.935 -15.05,8.086 -23.993,11.589 -0.644,0.386 -1.216,0.743 -1.733,1.079 -0.763,0.521 -1.565,1.074 -2.413,1.664 -0.102,0.074 -0.203,0.148 -0.303,0.221 -0.074,0.481 -0.274,0.944 -0.597,1.337 -0.287,0.548 -2.222,4.181 -3.673,5.526 -0.37,0.342 -0.747,0.615 -1.115,0.819 l -1.05,0.416 -1.11,0.112 -1.181,-0.251 c -0.024,-0.009 -0.049,-0.019 -0.074,-0.029 -0.087,0.032 -0.169,0.06 -0.247,0.083 -0.882,0.266 -1.352,0.093 -2.213,0.177 -5.241,0.513 -7.928,0.757 -8.922,0.756 l -0.936,-0.085 -0.99,-0.402 -0.788,-0.749 -0.435,-0.949 -0.074,-0.91 0.169,-0.758 0.59,-0.951 0.066,-0.046 c -0.466,-0.374 -0.886,-0.818 -1.211,-1.326 l -0.388,-0.765 c -1.37,0.055 -2.51,-0.282 -3.257,-0.889 l -0.778,-0.877 -0.43,-0.936 -0.199,-1.294 c -0.004,-0.235 0.009,-0.482 0.039,-0.741 -0.129,-0.079 -0.249,-0.159 -0.36,-0.24 -0.609,0.075 -1.216,0.098 -1.811,0.059 -1.141,-0.076 -1.997,-0.377 -2.631,-0.756 l -0.798,-0.608 -0.65,-0.806 -0.164,-0.359 c -0.364,-0.033 -0.696,-0.097 -0.991,-0.188 l -1.22,-0.609 -0.57,-0.513 -0.465,-0.636 -0.383,-1.02 -0.01,-0.28 c -0.371,0.015 -0.678,0.002 -0.932,-0.03 l -1.411,-0.398 -0.689,-0.42 -0.595,-0.572 -0.489,-0.846 -0.612,-0.165 -0.67,-0.336 c -1.461,-0.269 -2.437,-0.798 -3.043,-1.34 l -0.928,-1.182 -0.292,-0.723 -0.146,-0.753 0.108,-1.412 0.288,-0.733 -0.586,-0.278 -1.139,-1.016 c -0.196,-0.243 -0.407,-0.556 -0.621,-0.962 -0.864,-0.271 -1.782,-0.652 -2.798,-1.16 l -0.366,-0.245 c -0.2,-0.1 -0.385,-0.206 -0.555,-0.318 l -0.97,-0.828 -0.576,-0.814 -0.343,-0.865 -0.125,-0.972 c 0,-0.817 0.115,-1.501 0.296,-2.071 z"
   style="fill:#f2dac7"
   id="path5" />
        </g>
    </g>
    <g
   id="fill-greyish"
   serif:id="fill greyish"
   transform="translate(-461.37988,-304.19928)">
        <g
   transform="translate(82.5374,-199.082)"
   id="g6">
            <path
   d="m 850.245,554.846 c 1.088,-0.615 2.345,-0.966 3.683,-0.966 1.346,0 2.663,-0.02 3.951,-0.056 6.641,-1.407 8.69,-1.342 17.391,-1.693 15.234,-2.613 24.894,-7.437 31.498,-9.403 5.246,-1.561 9.369,-1.571 12.768,-0.19 3.46,1.406 6.698,4.309 9.195,10.34 0.493,0.829 5.277,8.77 11.562,15.673 7.073,7.768 17.042,16.203 29.269,18.427 3.509,0.638 6.082,3.66 6.151,7.226 0.069,3.565 -2.384,6.685 -5.866,7.459 -5.602,1.245 -11.787,4.129 -17.144,7.424 0.316,2.283 -0.426,4.669 -2.179,6.386 -0.43,0.421 -8.457,8.25 -13.05,11.645 -1.222,0.904 -2.306,1.566 -3.12,1.958 l -2.379,0.808 -3.162,-10e-4 -1.519,-0.469 -1.598,-0.915 -1.069,-1.024 c -1.237,-0.21 -2.582,-0.508 -4.053,-0.909 l -1.996,-0.827 -2.259,-1.71 c -1.318,-1.249 -4.559,-5.02 -4.906,-5.424 -6.428,-3.936 -13.859,-4.522 -21.287,-6.697 -9.463,-2.77 -18.987,-7.33 -27.494,-19.389 -2.962,-1.403 -3.6,-1.773 -5.325,-3.12 l -2.117,-2.261 c -0.329,-0.478 -0.805,-1.371 -1.067,-1.878 -0.712,-0.779 -1.235,-1.685 -1.56,-2.65 -0.423,-0.514 -0.855,-1.02 -1.307,-1.505 -1.143,-0.625 -2.285,-1.427 -3.609,-2.55 -10.629,-9.019 -9.455,-10.298 -23.499,-18.868 -3.232,-1.972 -4.485,-6.045 -2.92,-9.492 1.565,-3.447 5.456,-5.185 9.067,-4.051 10.262,3.223 9.418,4.988 19.572,8.572 0.128,0.045 0.253,0.088 0.378,0.13 z"
   style="fill:#dccdc1"
   id="path6" />
        </g>
        <g
   transform="translate(82.5374,-199.082)"
   id="g7">
            <path
   d="m 647.988,571.071 c 0.317,-4.629 0.918,-7.831 1.577,-9.934 0.009,-2.775 0.686,-5.531 2.328,-8.143 2.086,-3.32 6.034,-6.769 13.8,-8.988 27.243,-7.783 35.054,-11.236 38.46,-12.37 1.395,-0.465 2.414,-0.679 3.317,-0.776 l 3.68,0.192 c 5.014,1.003 9.56,5.304 12.584,12.814 3.887,9.652 6.021,25.847 10.479,38.757 0.258,0.242 0.502,0.505 0.729,0.789 11.087,13.858 12.317,14.527 14.017,19.276 9.173,9.399 26.814,21.915 69.284,43.15 13.005,6.503 23.236,7.927 30.63,9.242 4.014,0.714 7.356,1.455 10.053,2.579 18.682,7.784 30.437,13.435 38.033,16.877 2.405,1.09 4.735,1.998 6.311,2.583 1.971,-2.593 5.487,-3.681 8.67,-2.448 3.829,1.483 5.75,5.772 4.308,9.617 -4.654,12.411 -5.944,17.999 -6.309,19.606 -0.458,2.014 -1.727,3.75 -3.507,4.797 -1.78,1.048 -3.914,1.314 -5.897,0.735 -1.824,-0.532 -3.479,-1.032 -4.996,-1.505 -5.669,2.076 -13.199,3.442 -21.769,4.149 -35.1,2.898 -88.836,-4.573 -91.895,-5.228 -11.091,-2.377 -41.42,-6.482 -64.109,-12.099 -10.611,-2.628 -19.646,-5.687 -24.885,-8.907 -3.725,-2.29 -5.982,-4.975 -7.078,-7.546 -2.974,1.46 -6.586,0.795 -8.843,-1.687 -10.977,-12.075 -24.535,-25.088 -30.565,-46.714 -4.037,-14.479 -4.766,-32.875 1.266,-57.552 0.112,-0.458 0.221,-0.879 0.327,-1.266 z m 71.064,15.371 c 0.212,1.559 0.4,2.969 0.561,4.184 l 0.607,-1.098 0.212,-0.219 c -0.474,-0.992 -0.934,-1.947 -1.38,-2.867 z"
   style="fill:#dccdc1"
   id="path7" />
        </g>
        <g
   transform="translate(82.5374,-199.082)"
   id="g8">
            <path
   d="m 1056.62,547.323 c -0.33,0.166 -0.67,0.31 -1.02,0.43 -3.92,1.327 -8.17,-0.776 -9.5,-4.692 l -0.4,-2.314 0.41,-2.514 0.84,-1.72 1.63,-1.756 1.56,-0.952 c 1.08,-0.511 7.05,-3.135 18.37,-5.399 1.06,-0.212 4.99,-0.515 7.09,-1.075 3.99,-1.066 8.1,1.313 9.17,5.308 1.06,3.996 -1.32,8.105 -5.31,9.17 -2.38,0.635 -6.81,1.05 -8.02,1.291 -8.64,1.729 -14.23,3.981 -14.82,4.223 z"
   style="fill:#dccdc1"
   id="path8" />
        </g>
    </g>
    <g
   id="outline"
   transform="translate(-461.37988,-304.19928)">
        <g
   transform="translate(82.5374,-199.082)"
   id="g9">
            <path
   d="m 468.566,797.446 c 0.707,2.237 -0.535,4.626 -2.772,5.333 -2.237,0.707 -4.626,-0.535 -5.333,-2.772 -1.295,-4.097 -3.078,-22.835 -1.459,-48.008 2.395,-37.211 12.109,-88.65 40.918,-127.06 39.743,-52.991 107.416,-98.691 164.389,-110.086 2.3,-0.46 4.541,1.034 5.001,3.334 0.46,2.3 -1.034,4.541 -3.334,5.001 -55.227,11.045 -120.732,55.484 -159.256,106.851 -27.762,37.015 -36.928,86.647 -39.235,122.506 -1.515,23.54 -0.13,41.07 1.081,44.901 z"
   style="fill:#b69474"
   id="path9" />
        </g>
        <g
   transform="translate(82.5374,-199.082)"
   id="g10">
            <path
   d="m 468.163,796.511 c 0.082,0.086 0.196,0.203 0.29,0.294 5.009,4.867 28.493,22.844 30.421,23.93 25.059,14.126 61.931,41.974 161.411,40.443 67.435,-1.037 142.085,-30.502 174.83,-57.908 50.169,-41.989 61.775,-63.722 86.538,-99.024 1.347,-1.92 4,-2.386 5.92,-1.039 1.921,1.347 2.386,4 1.039,5.92 -25.181,35.899 -37.025,57.963 -88.042,100.661 -33.754,28.251 -110.64,58.82 -180.154,59.889 C 558.28,871.249 520.427,842.643 494.7,828.14 c -1.802,-1.016 -21.552,-16.016 -29.613,-22.938 -1.874,-1.61 -3.178,-2.873 -3.692,-3.522 l -0.632,-0.978 -0.345,-0.922 c -0.582,-2.273 0.791,-4.59 3.064,-5.171 1.852,-0.474 3.733,0.351 4.681,1.902 z"
   style="fill:#b69474"
   id="path10" />
        </g>
        <g
   transform="translate(82.5374,-199.082)"
   id="g11">
            <path
   d="m 661.132,517.611 c 0.547,-1.552 1.974,-2.711 3.719,-2.831 2.34,-0.16 4.37,1.609 4.531,3.949 l -0.277,1.853 c -0.152,0.409 -0.994,2.067 -2.313,4.752 -4.979,10.137 -17.238,36.719 -19.927,66.399 -1.752,19.344 0.56,40.048 11.967,58.207 12.32,19.614 35.189,36.108 74.403,45.072 50.686,11.586 88.241,20.218 180.842,8.643 0.92,-0.115 6.077,-0.988 9.613,-1.661 2.304,-0.438 4.531,1.077 4.969,3.382 0.438,2.304 -1.077,4.531 -3.381,4.969 -3.732,0.71 -9.176,1.623 -10.147,1.745 -94.11,11.763 -132.277,2.983 -183.791,-8.792 -42.138,-9.632 -66.466,-27.76 -79.706,-48.837 -12.45,-19.82 -15.146,-42.381 -13.234,-63.495 2.809,-31.005 15.561,-58.79 20.762,-69.38 0.918,-1.867 1.775,-3.586 1.97,-3.975 z"
   style="fill:#b69474"
   id="path11" />
        </g>
        <g
   transform="translate(82.5374,-199.082)"
   id="g12">
            <path
   d="m 656.007,551.134 c -2.114,1.016 -4.656,0.126 -5.672,-1.988 -1.017,-2.114 -0.127,-4.655 1.987,-5.672 16.143,-7.766 15.788,-8.488 33.067,-13.552 2.297,-0.674 18.874,-4.746 29.493,-5.568 2.339,-0.181 4.384,1.571 4.565,3.909 0.181,2.339 -1.57,4.385 -3.909,4.566 -9.995,0.773 -25.596,4.616 -27.758,5.25 -16.609,4.868 -16.256,5.59 -31.773,13.055 z"
   style="fill:#b69474"
   id="path12" />
        </g>
        <g
   transform="translate(82.5374,-199.082)"
   id="g13">
            <path
   d="m 917.272,706.395 c 0.775,2.214 -0.393,4.64 -2.607,5.415 -2.214,0.775 -4.641,-0.393 -5.416,-2.607 -1.202,-3.435 -1.114,-7.656 -0.386,-11.602 0.968,-5.242 2.97,-9.932 3.374,-10.875 3.378,-7.881 4.615,-8.559 8.269,-12.004 1.707,-1.609 4.399,-1.529 6.007,0.178 1.609,1.707 1.53,4.399 -0.177,6.008 -2.787,2.626 -3.711,3.157 -6.286,9.166 -0.337,0.787 -2.02,4.696 -2.828,9.07 -0.455,2.465 -0.701,5.105 0.05,7.251 z"
   style="fill:#b69474"
   id="path13" />
        </g>
        <g
   transform="translate(82.5374,-199.082)"
   id="g14">
            <path
   d="m 710.988,529.082 c -0.27,-2.33 1.402,-4.442 3.732,-4.712 2.33,-0.271 4.441,1.401 4.712,3.731 1.127,9.706 8.871,59.814 75.324,98.075 52.058,29.973 100.712,40.869 120.478,45.229 5.545,1.223 9.04,2.085 10.087,2.609 2.098,1.049 2.95,3.604 1.901,5.702 -1.049,2.098 -3.604,2.949 -5.702,1.9 -0.838,-0.419 -3.679,-0.932 -8.117,-1.91 -20.163,-4.448 -69.784,-15.589 -122.889,-46.164 -70.55,-40.62 -78.329,-94.156 -79.526,-104.46 z"
   style="fill:#b69474"
   id="path14" />
        </g>
        <g
   transform="translate(82.5374,-199.082)"
   id="g15">
            <path
   d="m 723.071,548.154 c -2.224,0.748 -4.636,-0.45 -5.384,-2.673 -0.748,-2.223 0.45,-4.635 2.673,-5.383 27.172,-9.142 73.57,-11.919 96.636,-4.23 2.225,0.741 3.429,3.15 2.687,5.376 -0.741,2.225 -3.15,3.429 -5.375,2.687 -21.78,-7.259 -65.58,-4.409 -91.237,4.223 z"
   style="fill:#b69474"
   id="path15" />
        </g>
        <g
   transform="translate(82.5374,-199.082)"
   id="g16">
            <path
   d="m 917.085,672.71 c 0.002,0.761 -0.2,1.531 -0.627,2.227 -1.226,1.999 -3.845,2.627 -5.845,1.401 l -1.214,-1.113 -0.722,-1.508 -0.136,-1.578 0.351,-1.712 c 1.067,-3.497 6.44,-14.628 14.009,-24.668 5.192,-6.887 11.427,-13.218 17.891,-16.499 2.092,-1.062 4.652,-0.226 5.714,1.865 1.061,2.092 0.225,4.652 -1.866,5.714 -5.447,2.765 -10.577,8.234 -14.952,14.037 -6.644,8.813 -11.511,18.5 -12.603,21.834 z m -0.558,-2.102 c -0.386,-0.71 -0.926,-1.182 -1.47,-1.516 0.632,0.388 1.127,0.914 1.47,1.516 z"
   style="fill:#b69474"
   id="path16" />
        </g>
        <g
   transform="translate(82.5374,-199.082)"
   id="g17">
            <path
   d="m 811.435,540.395 c -0.294,-2.327 1.356,-4.455 3.683,-4.749 2.327,-0.295 4.456,1.356 4.75,3.683 1.361,10.76 10.817,22.026 21.685,32.073 17.186,15.888 38.357,28.459 41.641,30.298 4.953,2.774 28.634,16.574 60.866,27.318 2.225,0.741 3.43,3.15 2.688,5.375 -0.742,2.226 -3.151,3.43 -5.376,2.688 -33.006,-11.002 -57.259,-25.124 -62.332,-27.965 -3.411,-1.91 -25.404,-14.968 -43.257,-31.472 -12.492,-11.548 -22.784,-24.881 -24.348,-37.249 z"
   style="fill:#b69474"
   id="path17" />
        </g>
        <g
   transform="translate(82.5374,-199.082)"
   id="g18">
            <path
   d="m 941.025,632.318 c -1.555,1.757 -4.243,1.92 -6,0.366 -1.756,-1.555 -1.919,-4.244 -0.365,-6 7.311,-8.258 9.763,-10.594 22.572,-21.588 7.829,-6.72 12.714,-9.627 24.024,-15.205 2.103,-1.037 4.654,-0.172 5.691,1.932 1.038,2.104 0.172,4.654 -1.932,5.691 -10.463,5.161 -15.004,7.816 -22.247,14.032 -12.333,10.585 -14.704,12.821 -21.743,20.772 z"
   style="fill:#b69474"
   id="path18" />
        </g>
        <g
   transform="translate(82.5374,-199.082)"
   id="g19">
            <path
   d="m 915.598,540.457 c -1.099,-2.073 -0.309,-4.647 1.763,-5.747 2.072,-1.099 4.647,-0.309 5.746,1.763 3.331,6.278 11.263,17.628 22.403,27.35 20.61,17.987 33.456,22.913 39.273,25.338 2.165,0.902 3.191,3.392 2.288,5.558 -0.902,2.165 -3.393,3.19 -5.558,2.288 -6.156,-2.566 -19.778,-7.742 -41.592,-26.78 -12.113,-10.572 -20.701,-22.944 -24.323,-29.77 z"
   style="fill:#b69474"
   id="path19" />
        </g>
        <g
   transform="translate(82.5374,-199.082)"
   id="g20">
            <path
   d="m 820.138,549.753 c -2.047,0.107 -3.929,-1.285 -4.373,-3.353 l -0.087,-1.222 0.196,-1.016 0.633,-1.238 0.884,-0.895 0.938,-0.538 1.021,-0.29 1.719,0.022 c 3.019,0.485 20.594,7.191 51.695,5.463 15.093,-0.838 40.385,-9.873 44.69,-12.023 2.098,-1.048 4.653,-0.196 5.701,1.903 1.048,2.098 0.195,4.653 -1.903,5.701 -4.626,2.31 -31.801,12.005 -48.017,12.906 -29.569,1.643 -49.971,-4.422 -53.097,-5.42 z m 3.182,-1.697 c 0.75,-0.89 1.062,-2.012 0.756,-3.44 0.268,1.25 -0.044,2.491 -0.756,3.44 z"
   style="fill:#b69474"
   id="path20" />
        </g>
        <g
   transform="translate(82.5374,-199.082)"
   id="g21">
            <path
   d="m 922.851,548.922 c -2.251,-0.658 -3.545,-3.021 -2.887,-5.272 0.658,-2.251 3.021,-3.545 5.272,-2.887 3.591,1.05 10.567,4.442 43.157,1.479 49.317,-4.483 65.307,-11.504 70.567,-13.841 2.15,-0.952 4.66,0.014 5.61,2.158 0.95,2.143 -0.01,4.657 -2.16,5.61 -5.46,2.426 -22.04,9.883 -73.247,14.539 -34.979,3.179 -42.458,-0.66 -46.312,-1.786 z"
   style="fill:#b69474"
   id="path21" />
        </g>
        <g
   transform="translate(82.5374,-199.082)"
   id="g22">
            <path
   d="m 983.977,592.255 c -1.074,1.511 -3.059,2.193 -4.891,1.54 -2.209,-0.787 -3.364,-3.22 -2.577,-5.43 0.038,-0.105 0.576,-1.259 2.174,-2.897 3.34,-3.425 13.494,-12.584 33.087,-21.587 10.74,-4.933 23.59,-11.392 40.54,-13.013 2.34,-0.223 4.42,1.491 4.64,3.826 0.22,2.335 -1.49,4.412 -3.83,4.635 -15.82,1.514 -27.78,7.671 -37.8,12.276 -20.218,9.289 -29.57,18.618 -31.293,20.592 -0.016,0.018 -0.034,0.039 -0.05,0.058 z"
   style="fill:#b69474"
   id="path22" />
        </g>
        <g
   transform="translate(82.5374,-199.082)"
   id="g23">
            <path
   d="m 1037,534.394 c -1.17,-2.036 -0.46,-4.634 1.58,-5.799 2.03,-1.164 4.63,-0.456 5.8,1.58 0.44,0.767 0.76,1.655 1.12,2.867 0.51,1.771 1.27,4.589 4.03,9.816 2.57,4.863 5.88,8.918 6.19,9.235 1.66,1.659 1.66,4.352 0,6.011 -1.65,1.658 -4.35,1.658 -6.01,0 -0.39,-0.39 -4.55,-5.306 -7.7,-11.277 -2.76,-5.227 -3.79,-8.394 -4.41,-10.492 -0.26,-0.874 -0.33,-1.474 -0.6,-1.941 z"
   style="fill:#b69474"
   id="path23" />
        </g>
        <g
   transform="translate(82.5374,-199.082)"
   id="g24">
            <path
   d="m 1085.3,533.643 c -16.8,0.726 -29.76,2.2 -39.85,5.883 -2.21,0.804 -4.65,-0.332 -5.45,-2.536 -0.81,-2.203 0.33,-4.645 2.54,-5.449 10.87,-3.969 24.86,-5.658 43.08,-6.419 14.62,-0.611 23.35,-0.269 42.68,2.646 2.15,0.325 3.71,2.23 3.61,4.408 -0.11,2.178 -1.84,3.923 -4.02,4.038 -6.1,0.323 -44.19,2.292 -74.35,17.372 -2.1,1.049 -4.65,0.198 -5.7,-1.9 -1.05,-2.098 -0.2,-4.653 1.9,-5.702 11.43,-5.715 23.94,-9.641 35.56,-12.341 z"
   style="fill:#b69474"
   id="path24" />
        </g>
        <g
   transform="translate(82.5374,-199.082)"
   id="g25">
            <path
   d="m 1130.17,533.774 c -1.89,1.385 -4.55,0.973 -5.94,-0.92 -1.38,-1.893 -0.97,-4.555 0.92,-5.94 5.64,-4.124 35.84,-39.02 84.97,-15.622 17.99,8.564 46.9,18.368 77.82,19.841 7.65,0.364 43.47,3.03 82.13,-14.572 2.14,-0.972 4.66,-0.028 5.63,2.107 0.97,2.135 0.03,4.657 -2.11,5.629 -40.51,18.446 -78.03,15.708 -86.05,15.326 -32.21,-1.534 -62.34,-11.735 -81.07,-20.657 -44.2,-21.048 -71.23,11.097 -76.3,14.808 z"
   style="fill:#b69474"
   id="path25" />
        </g>
        <g
   transform="translate(82.5374,-199.082)"
   id="g26">
            <path
   d="m 1123.26,536.535 c -2.35,-0.012 -4.24,-1.927 -4.23,-4.272 0.01,-2.346 1.92,-4.24 4.27,-4.228 5.97,0.031 23.82,-3.154 37.89,-0.42 11.06,2.148 19.86,7.777 21.52,19.473 0.6,4.268 -0.35,10.541 -2.21,18.058 -2.53,10.247 -6.66,23.069 -9.57,36.23 -2.33,10.564 -3.9,21.351 -3.06,31.12 0.78,9.064 3.64,17.229 10.26,23.24 14.15,12.855 34.41,31.29 71.57,30.875 2.35,-0.026 4.27,1.857 4.3,4.202 0.02,2.346 -1.86,4.271 -4.2,4.298 -40.12,0.448 -62.11,-19.204 -77.39,-33.084 -12.88,-11.705 -14.85,-29.864 -12.25,-48.916 2.19,-15.989 7.47,-32.579 11.01,-45.837 2.15,-8.035 3.73,-14.701 3.12,-18.992 -1.1,-7.737 -7.4,-10.902 -14.72,-12.323 -13.49,-2.62 -30.59,0.605 -36.31,0.576 z"
   style="fill:#b69474"
   id="path26" />
        </g>
    </g>
    <g
   id="details"
   transform="translate(-461.37988,-304.19928)">
        <g
   transform="translate(82.5374,-199.082)"
   id="g27">
            <path
   d="m 1029.06,546.626 c -0.72,-2.232 0.5,-4.63 2.73,-5.353 2.23,-0.723 4.63,0.502 5.35,2.733 0.42,1.283 0.13,0.995 1.29,3.459 1,2.121 0.09,4.656 -2.03,5.657 -2.12,1.001 -4.66,0.091 -5.66,-2.03 -1.5,-3.188 -1.14,-2.807 -1.68,-4.466 z"
   style="fill:#b69474"
   id="path27" />
        </g>
        <g
   transform="translate(82.5374,-199.082)"
   id="g28">
            <path
   d="m 908.633,553.628 c -1.029,-2.109 -0.152,-4.655 1.956,-5.684 2.108,-1.028 4.655,-0.152 5.683,1.956 1.748,3.583 5.592,9.328 11.08,14.918 7.728,7.87 11.238,11.037 19.183,16.731 1.906,1.367 2.345,4.024 0.978,5.93 -1.366,1.907 -4.023,2.345 -5.93,0.979 -8.402,-6.022 -12.123,-9.361 -20.296,-17.685 -6.293,-6.41 -10.649,-13.037 -12.654,-17.145 z"
   style="fill:#b69474"
   id="path28" />
        </g>
        <g
   transform="translate(82.5374,-199.082)"
   id="g29">
            <path
   d="m 800.26,552.647 c -1.206,-2.012 -0.552,-4.624 1.46,-5.83 2.012,-1.206 4.625,-0.551 5.831,1.461 3.234,5.397 12.076,21.568 24.102,32.663 6.36,5.868 18.063,15.153 25.435,20.047 1.955,1.297 2.488,3.937 1.191,5.891 -1.298,1.955 -3.938,2.488 -5.892,1.191 -7.679,-5.098 -19.872,-14.769 -26.497,-20.881 -12.743,-11.756 -22.203,-28.823 -25.63,-34.542 z"
   style="fill:#b69474"
   id="path29" />
        </g>
        <g
   transform="translate(82.5374,-199.082)"
   id="g30">
            <path
   d="m 699.912,545.527 c -0.55,-2.281 0.854,-4.579 3.134,-5.129 2.28,-0.55 4.578,0.854 5.129,3.134 1.075,4.453 1.064,22.839 26.171,52.022 10.207,11.863 14.622,16.325 23.908,23.327 6.721,5.067 17.696,10.985 21.733,13.601 1.969,1.275 2.532,3.909 1.256,5.877 -1.275,1.969 -3.909,2.532 -5.877,1.256 -4.132,-2.677 -15.35,-8.76 -22.23,-13.947 -9.791,-7.383 -14.471,-12.062 -25.233,-24.571 -26.827,-31.181 -26.843,-50.812 -27.991,-55.57 z"
   style="fill:#b69474"
   id="path30" />
        </g>
        <g
   transform="translate(82.5374,-199.082)"
   id="g31">
            <path
   d="m 636.999,539.566 c 1.004,-2.119 3.54,-3.025 5.66,-2.021 2.12,1.004 3.026,3.54 2.022,5.66 -1.781,3.759 -14.236,37.502 -14.333,61.341 -0.083,20.661 9.813,50.076 18.783,60.68 1.515,1.79 1.291,4.474 -0.5,5.989 -1.79,1.515 -4.474,1.291 -5.989,-0.5 -9.8,-11.584 -20.885,-43.633 -20.794,-66.203 0.102,-25.238 13.266,-60.966 15.151,-64.946 z"
   style="fill:#b69474"
   id="path31" />
        </g>
        <g
   transform="translate(82.5374,-199.082)"
   id="g32">
            <path
   d="m 738.072,722.802 c -2.138,-0.965 -3.091,-3.484 -2.126,-5.622 0.964,-2.138 3.483,-3.091 5.621,-2.127 13.185,5.948 44.601,11.042 75.725,11.889 31.352,0.854 62.443,-2.624 78.49,-7.973 2.225,-0.742 4.634,0.463 5.376,2.688 0.741,2.225 -0.463,4.634 -2.688,5.376 -16.647,5.549 -48.886,9.291 -81.41,8.406 -32.48,-0.884 -65.228,-6.431 -78.988,-12.637 z"
   style="fill:#b69474"
   id="path32" />
        </g>
        <g
   transform="translate(82.5374,-199.082)"
   id="g33">
            <path
   d="m 531.606,732.996 c 6.225,2.35 10.718,8.283 9.975,15.481 -0.627,6.073 -5.314,13.693 -18.115,20.194 -24.418,12.402 -38.51,-4.666 -31.193,-17.195 4.319,-7.395 13.454,-14.05 22.303,-17.295 6.406,-2.35 12.66,-2.835 17.03,-1.185 z m -3.002,7.952 c -2.859,-1.079 -6.911,-0.324 -11.102,1.213 -7.045,2.584 -14.45,7.713 -17.889,13.601 -1.245,2.132 -1.036,4.387 0.446,5.978 3.266,3.505 10.404,4.002 19.558,-0.647 16.473,-8.366 15.745,-17.593 8.987,-20.145 z"
   style="fill:#b69474"
   id="path33" />
        </g>
        <g
   transform="translate(82.5374,-199.082)"
   id="g34">
            <path
   d="m 523.768,768.157 c -5.801,2.893 -14.408,3.803 -18.117,-3.953 -3.084,-6.451 0.265,-11.815 6.904,-16.347 5.235,-3.573 14.001,-4.075 18.008,2.325 1.927,3.078 2.277,6.066 1.591,8.794 -0.901,3.588 -3.848,6.917 -8.386,9.181 z m -3.794,-7.607 c 2.824,-1.408 4.962,-3.337 3.384,-5.857 -0.493,-0.788 -1.331,-1.012 -2.159,-1.025 -1.367,-0.02 -2.79,0.484 -3.852,1.209 -1.448,0.989 -2.722,1.978 -3.59,3.073 -0.609,0.768 -0.909,1.6 -0.437,2.587 0.576,1.206 1.699,1.361 2.773,1.248 1.363,-0.143 2.736,-0.664 3.881,-1.235 z"
   style="fill:#b69474"
   id="path34" />
        </g>
        <g
   transform="rotate(-30.195555,277.50675,440.67295)"
   id="g35">
            <path
   d="m 531.606,732.996 c 6.225,2.35 10.718,8.283 9.975,15.481 -0.627,6.073 -5.314,13.693 -18.115,20.194 -24.418,12.402 -38.51,-4.666 -31.193,-17.195 4.319,-7.395 13.454,-14.05 22.303,-17.295 6.406,-2.35 12.66,-2.835 17.03,-1.185 z m -3.002,7.952 c -2.859,-1.079 -6.911,-0.324 -11.102,1.213 -7.045,2.584 -14.45,7.713 -17.889,13.601 -1.245,2.132 -1.036,4.387 0.446,5.978 3.266,3.505 10.404,4.002 19.558,-0.647 16.473,-8.366 15.745,-17.593 8.987,-20.145 z"
   style="fill:#b69474"
   id="path35" />
        </g>
        <g
   transform="rotate(-34.16078,312.71298,473.26249)"
   id="g36">
            <path
   d="m 523.768,768.157 c -5.801,2.893 -14.408,3.803 -18.117,-3.953 -3.084,-6.451 0.265,-11.815 6.904,-16.347 5.235,-3.573 14.001,-4.075 18.008,2.325 1.927,3.078 2.277,6.066 1.591,8.794 -0.901,3.588 -3.848,6.917 -8.386,9.181 z m -3.794,-7.607 c 2.824,-1.408 4.962,-3.337 3.384,-5.857 -0.493,-0.788 -1.331,-1.012 -2.159,-1.025 -1.367,-0.02 -2.79,0.484 -3.852,1.209 -1.448,0.989 -2.722,1.978 -3.59,3.073 -0.609,0.768 -0.909,1.6 -0.437,2.587 0.576,1.206 1.699,1.361 2.773,1.248 1.363,-0.143 2.736,-0.664 3.881,-1.235 z"
   style="fill:#b69474"
   id="path36" />
        </g>
        <g
   transform="translate(82.5374,-199.082)"
   id="g37">
            <path
   d="m 500.605,750.895 c 0.759,-1.562 2.063,-2.905 4.981,-4.989 6.778,-4.841 6.277,-6.054 14.481,-7.39 0.469,-0.076 0.936,-0.072 1.386,0.003 1.458,-0.613 2.983,-1.149 4.134,-1.3 l 1.363,-0.061 1.134,0.163 1.361,0.538 0.863,0.634 0.384,0.04 1.751,0.602 1.151,0.715 1.043,0.997 0.992,1.582 0.428,1.423 0.021,0.03 c 0.261,0.502 0.497,1.1 0.688,1.745 0.527,1.781 0.716,4.018 0.736,4.281 0.182,2.339 -1.568,4.385 -3.907,4.568 -1.656,0.129 -3.166,-0.712 -3.971,-2.045 l -0.397,-0.11 -1.199,-0.743 -0.81,-0.866 -0.5,-0.849 -0.718,0.092 -1.663,-0.301 -1.612,-1.015 -0.722,-0.939 c -0.527,0.236 -0.911,0.412 -1.008,0.466 -1.339,0.754 -2.931,0.707 -4.195,-0.015 -1.963,0.929 -2.921,2.277 -6.273,4.671 -2.173,1.553 -2.545,2.224 -2.855,3.782 -0.171,0.857 -0.351,1.85 -0.642,3.064 l 0.724,0.436 0.832,1.088 0.424,1.194 0.026,1.467 -0.314,1.067 -0.707,1.098 -1.134,0.904 -1.076,0.412 -0.987,0.111 -0.653,-0.08 -0.775,-0.174 c 0.026,0.01 0.052,0.019 0.078,0.028 0.018,0.006 0.121,0.05 0.307,0.098 l -0.637,-0.078 -0.615,-0.242 -0.14,-0.031 -0.214,-0.108 -0.586,-0.231 -0.271,-0.201 -0.36,-0.181 -1.115,-0.931 -0.988,-1.381 -0.052,-0.134 -0.002,-0.002 c -0.674,-0.319 -1.272,-0.818 -1.715,-1.483 -0.666,-0.998 -1.042,-1.797 -1.256,-2.457 l -0.25,-1.069 -0.05,-1.189 c 0.079,-1.302 0.792,-2.497 2.158,-4.73 0.659,-1.076 1.738,-1.775 2.923,-1.974 z m 3.56,16.47 0.274,0.061 c -0.283,-0.024 -0.504,-0.068 -0.664,-0.109 z"
   style="fill:#b69474"
   id="path37" />
        </g>
        <g
   transform="translate(82.5374,-199.082)"
   id="g38">
            <path
   d="m 564.13,772.146 c 1.07,-0.343 2.009,-0.477 2.822,-0.484 l 1.791,0.202 1.706,0.67 1.153,0.824 0.893,0.962 0.751,1.2 c 0.269,0.53 0.488,1.109 0.656,1.719 0.5,1.811 0.487,4.728 0.47,5.634 0.162,0.81 0.09,1.675 -0.258,2.492 -0.918,2.158 -3.416,3.165 -5.574,2.247 l -0.994,-0.592 -0.881,-0.95 -0.593,-1.262 -0.195,-1.205 c -0.028,-0.52 0.045,-1.583 -0.002,-2.755 -0.004,-0.105 -0.016,-0.231 -0.031,-0.364 l -0.303,0.078 c -0.297,0.043 -0.724,-0.134 -4.27,1.094 -1.822,0.63 -3.694,2.251 -5.433,4.219 -2.91,3.294 -5.374,7.657 -6.05,11.428 -0.253,1.412 -0.446,2.726 0.365,3.538 0.524,0.525 1.381,0.683 2.51,0.742 2.342,0.124 4.144,2.126 4.021,4.468 -0.124,2.342 -2.125,4.144 -4.468,4.021 -3.751,-0.198 -6.334,-1.479 -8.077,-3.224 -2.593,-2.596 -3.527,-6.529 -2.718,-11.045 0.916,-5.107 4.105,-11.095 8.048,-15.556 2.829,-3.203 6.057,-5.598 9.021,-6.624 3.155,-1.091 4.866,-1.395 5.64,-1.477 z"
   style="fill:#b69474"
   id="path38" />
        </g>
        <g
   transform="translate(82.5374,-199.082)"
   id="g39">
            <path
   d="m 578.873,723.603 c 3.359,-0.887 6.617,-0.194 8.547,1.803 l 1.114,1.529 0.668,1.745 c 0.245,0.987 0.342,2.181 0.163,3.611 -0.392,3.136 -2.42,6.363 -5.262,8.989 -3.899,3.603 -9.203,5.971 -11.954,6.133 -3.292,0.194 -5.57,-0.84 -7.038,-2.247 l -1.205,-1.508 -0.756,-1.712 c -0.314,-1.042 -0.425,-2.207 -0.286,-3.457 0.545,-4.887 5.874,-12.211 16.009,-14.886 z m -7.362,15.328 c 0.049,0 0.095,-0.001 0.139,-0.003 1.282,-0.076 3.413,-1.294 5.382,-2.799 1.605,-1.227 3.227,-2.647 3.749,-4.237 -3.994,1.11 -6.902,3.198 -8.472,5.392 -0.338,0.472 -0.62,1.154 -0.798,1.647 z"
   style="fill:#b69474"
   id="path39" />
        </g>
        <g
   transform="translate(82.5374,-199.082)"
   id="g40">
            <path
   d="m 581.678,736.266 c -0.319,0.249 -1.834,1.438 -2.831,2.317 -1.779,1.567 -3.742,3.187 -5.653,4.143 -2.098,1.049 -4.653,0.197 -5.702,-1.901 -1.049,-2.098 -0.198,-4.653 1.9,-5.702 2.274,-1.136 4.534,-3.645 6.384,-5.092 1.63,-1.275 3.191,-1.967 4.391,-2.117 2.328,-0.291 4.453,1.363 4.744,3.69 0.272,2.173 -1.15,4.169 -3.233,4.662 z"
   style="fill:#b69474"
   id="path40" />
        </g>
        <g
   transform="translate(82.5374,-199.082)"
   id="g41">
            <path
   d="m 586.376,864.662 c -2.156,-0.924 -3.156,-3.424 -2.232,-5.58 0.924,-2.156 3.425,-3.156 5.581,-2.232 20.521,8.794 43.2,35.901 46.359,39.487 9.754,11.072 16.925,21.026 22.26,29.828 -10.891,-27.279 -29.009,-50.282 -37.079,-57.276 -1.773,-1.537 -1.965,-4.223 -0.429,-5.996 1.537,-1.772 4.223,-1.964 5.995,-0.428 13.069,11.326 50.723,62.062 48.712,108.307 -0.091,2.088 -1.687,3.8 -3.763,4.037 -2.077,0.238 -4.018,-1.071 -4.578,-3.085 -2.611,-9.401 -5.268,-33.185 -37.496,-69.768 -2.966,-3.367 -24.064,-29.037 -43.33,-37.294 z"
   style="fill:#b69474"
   id="path41" />
        </g>
        <g
   transform="translate(82.5374,-199.082)"
   id="g42">
            <path
   d="m 649.931,869.733 c -1.646,-1.201 -2.234,-3.451 -1.293,-5.332 1.049,-2.098 3.604,-2.95 5.702,-1.901 0.441,0.221 1.499,1.002 2.711,2.46 2.677,3.219 8.072,11.007 10.712,16.193 11.934,23.437 13.258,37.313 13.974,41.373 0.372,2.108 -0.882,4.163 -2.926,4.797 -2.045,0.634 -4.241,-0.351 -5.128,-2.299 -7.154,-15.722 -17.617,-27.488 -20.301,-31.572 -2.246,-3.417 -18.034,-20.218 -19.623,-21.906 -0.917,-0.38 -1.706,-1.081 -2.181,-2.039 -1.04,-2.103 -0.178,-4.654 1.925,-5.694 l 1.172,-0.386 1.323,-0.034 1.381,0.392 1.393,0.857 c 3.906,2.967 19.118,20.194 21.713,24.141 0.801,1.219 2.266,3.103 4.124,5.562 -1.27,-2.908 -2.732,-6.02 -4.42,-9.335 -2.569,-5.045 -9.848,-14.733 -10.258,-15.277 z m -13.784,2.071 c 0.423,-0.073 0.796,-0.21 1.126,-0.373 -0.366,0.181 -0.744,0.304 -1.126,0.373 z"
   style="fill:#b69474"
   id="path42" />
        </g>
        <g
   transform="translate(82.5374,-199.082)"
   id="g43">
            <path
   d="m 677.328,878.684 c -0.031,-0.067 -0.061,-0.133 -0.092,-0.199 -2.533,-5.5 -4.519,-8.482 -6.578,-10.844 -1.542,-1.768 -1.358,-4.455 0.41,-5.996 1.768,-1.542 4.455,-1.358 5.997,0.41 2.451,2.812 4.875,6.326 7.892,12.874 3.939,8.551 8.44,20.521 10.169,31.898 0.312,2.054 -0.906,4.033 -2.881,4.678 -1.974,0.646 -4.126,-0.23 -5.088,-2.072 -3.898,-7.463 -8.609,-14.664 -10.926,-17.831 -5.934,-8.111 -8.684,-11.984 -9.794,-13.327 -2.269,-2.744 -6.891,-8.242 -7.228,-8.643 -1.679,-1.328 -2.123,-3.738 -0.959,-5.592 1.248,-1.986 3.874,-2.585 5.86,-1.338 0.293,0.184 0.938,0.701 1.726,1.569 1.623,1.786 4.94,5.912 7.152,8.588 0.697,0.843 2.025,2.65 4.34,5.825 z"
   style="fill:#b69474"
   id="path43" />
        </g>
        <g
   transform="translate(82.5374,-199.082)"
   id="g44">
            <path
   d="m 469.315,725.515 c 1.09,2.077 0.288,4.648 -1.789,5.737 -2.078,1.09 -4.649,0.288 -5.738,-1.789 -3.273,-6.239 -3.75,-10.545 -15.352,-29.371 -18.382,-29.827 -28.062,-47.388 -65.251,-66.069 -1.903,-0.956 -2.804,-3.172 -2.109,-5.185 0.695,-2.013 2.772,-3.2 4.859,-2.778 33.168,6.705 71.395,41.196 88.782,75.968 1.049,2.098 0.197,4.653 -1.901,5.702 -2.098,1.049 -4.653,0.198 -5.702,-1.9 -7.693,-15.387 -19.686,-30.783 -33.469,-43.402 7.587,9.514 14.038,20.242 22.027,33.205 11.808,19.159 12.312,23.532 15.643,29.882 z"
   style="fill:#b69474"
   id="path44" />
        </g>
        <g
   transform="translate(82.5374,-199.082)"
   id="g45">
            <path
   d="m 480.126,674.234 c 1.337,1.668 1.232,4.113 -0.314,5.659 -1.659,1.659 -4.352,1.659 -6.011,0 l -0.945,-1.186 -0.767,-1.679 c -0.563,-1.679 -1.242,-5.221 -9,-17.12 7.532,18.288 11.249,33.228 11.907,36.406 l 0.17,1.901 -0.232,1.015 -0.44,0.882 -0.967,1.044 -1.141,0.627 c -2.205,0.8 -4.645,-0.34 -5.446,-2.545 -0.124,-0.343 -0.202,-0.692 -0.236,-1.04 -0.01,-0.05 -0.021,-0.109 -0.032,-0.161 -0.725,-3.504 -5.355,-21.883 -14.923,-42.933 -10.055,-22.121 -25.306,-37.243 -28.557,-39.733 -1.702,-1.304 -2.166,-3.67 -1.084,-5.52 1.082,-1.85 3.372,-2.605 5.342,-1.761 4.232,1.814 16.134,8.747 37.648,39.615 12.664,18.171 14.805,25.639 15.028,26.529 z"
   style="fill:#b69474"
   id="path45" />
        </g>
        <g
   transform="translate(82.5374,-199.082)"
   id="g46">
            <path
   d="m 454.764,617.567 1.683,-8.145 0.368,0.157 -0.004,0.021 c 11.404,6.272 30.933,25.207 34.464,42.863 0.46,2.3 -1.034,4.541 -3.334,5.001 -2.3,0.46 -4.541,-1.034 -5.001,-3.334 -1.047,-5.235 -3.739,-10.575 -7.226,-15.556 0.671,1.91 1.224,3.849 1.619,5.792 3.474,17.082 5.146,21.496 5.989,24.485 0.636,2.258 -0.68,4.608 -2.937,5.244 -2.258,0.637 -4.608,-0.679 -5.244,-2.937 -0.864,-3.064 -2.576,-7.589 -6.137,-25.098 -2.854,-14.032 -15.199,-27.695 -17.025,-29.741 z m -1.665,-0.333 c 0.419,0.179 0.865,0.289 1.32,0.326 z"
   style="fill:#b69474"
   id="path46" />
        </g>
        <g
   transform="translate(82.5374,-199.082)"
   id="g47">
            <path
   d="m 968.1,604.06 c -1.35,-1.076 -1.959,-2.917 -1.388,-4.652 0.733,-2.228 3.137,-3.442 5.365,-2.709 11.556,3.802 19.678,12.9 20.81,14.336 3.65,4.629 8.173,12.331 9.373,25.522 0.18,2.006 -1.07,3.864 -2.997,4.45 -1.927,0.587 -4,-0.259 -4.967,-2.025 -1.372,-2.508 -6.048,-18.311 -24.251,-24.93 -0.49,-0.178 -6.447,-2.622 -7.915,-3.356 -2.098,-1.049 -2.949,-3.604 -1.9,-5.702 1.049,-2.098 3.604,-2.95 5.702,-1.901 0.414,0.207 1.232,0.567 2.168,0.967 z"
   style="fill:#b69474"
   id="path47" />
        </g>
        <g
   transform="translate(82.5374,-199.082)"
   id="g48">
            <path
   d="m 949.936,620.121 c -0.862,-0.81 -1.384,-1.973 -1.34,-3.247 0.082,-2.344 2.052,-4.18 4.396,-4.098 2.098,0.073 14.254,3.91 22.533,12.013 5.347,5.234 9.445,13.14 12.036,21.644 0.611,2.004 -0.33,4.154 -2.216,5.065 -1.886,0.912 -4.155,0.313 -5.346,-1.41 -1.879,-2.72 -13.142,-19.081 -34.869,-22.185 -2.322,-0.331 -3.938,-2.486 -3.606,-4.808 0.331,-2.322 2.486,-3.938 4.808,-3.606 1.23,0.176 2.431,0.388 3.604,0.632 z"
   style="fill:#b69474"
   id="path48" />
        </g>
        <g
   transform="translate(82.0123,-198.013)"
   id="g49">
            <path
   d="m 932.465,640.461 c 0.525,-0.023 1.854,10e-4 4.368,0.507 -0.035,-0.013 -0.07,-0.026 -0.105,-0.039 -2.201,-0.812 -3.328,-3.258 -2.517,-5.458 0.812,-2.201 3.258,-3.329 5.459,-2.517 32.479,11.982 38.009,27.313 39.273,32.791 0.462,2 -0.572,4.044 -2.457,4.858 -1.885,0.813 -4.081,0.163 -5.22,-1.545 -1.552,-2.327 -7.6,-10.966 -29.923,-18.091 -7.872,-2.512 -8.761,-1.956 -9.405,-1.997 l -1.312,-0.256 c -2.226,-0.741 -3.43,-3.15 -2.688,-5.376 0.648,-1.944 2.568,-3.108 4.527,-2.877 z"
   style="fill:#b69474"
   id="path49" />
        </g>
        <g
   transform="translate(81.7762,-198.623)"
   id="g50">
            <path
   d="m 941.614,663.165 c -6.681,-3.754 -13.693,-6.41 -15.054,-6.492 -2.342,-0.14 -4.129,-2.155 -3.989,-4.496 0.14,-2.342 2.155,-4.129 4.496,-3.989 1.842,0.111 12.391,3.648 21.222,9.036 6.634,4.047 15.677,13.074 19.555,20.951 0.863,1.752 0.42,3.868 -1.074,5.127 -1.494,1.259 -3.653,1.337 -5.234,0.19 -9.17,-6.652 -11.144,-8.24 -24.08,-12.781 -11.381,-3.996 -16.494,-2.92 -19.411,-3.032 -2.344,-0.09 -4.174,-2.066 -4.084,-4.41 0.09,-2.344 2.067,-4.174 4.411,-4.084 3.293,0.127 9.051,-1.005 21.899,3.506 0.46,0.161 0.907,0.319 1.343,0.474 z"
   style="fill:#b69474"
   id="path50" />
        </g>
        <g
   transform="translate(82.5374,-199.082)"
   id="g51">
            <path
   d="m 931.951,688.529 c -3.665,-0.791 -7.395,-1.298 -11.155,-1.593 -2.338,-0.182 -4.088,-2.23 -3.906,-4.568 0.183,-2.339 2.23,-4.089 4.569,-3.906 8.942,0.7 17.721,2.517 25.977,6.133 7.097,3.109 13.059,4.696 20.375,13.051 1.254,1.432 1.403,3.523 0.364,5.118 -1.038,1.595 -3.01,2.306 -4.827,1.74 -11.054,-3.447 -22.334,-6.445 -31.959,-7.487 -5.874,-0.637 -11.077,-0.577 -15.088,0.76 -2.225,0.742 -4.634,-0.462 -5.376,-2.688 -0.742,-2.225 0.463,-4.634 2.688,-5.376 4.891,-1.63 11.202,-1.926 18.338,-1.184 z"
   style="fill:#b69474"
   id="path51" />
        </g>
        <g
   transform="translate(82.5374,-199.082)"
   id="g52">
            <path
   d="m 923.625,662.112 c -2.3,-0.46 -3.794,-2.701 -3.334,-5.001 0.46,-2.3 2.701,-3.794 5.001,-3.334 1.753,0.35 8.81,1.455 10.699,2.313 1.176,0.535 6.219,3.459 7.698,4.199 2.098,1.049 2.95,3.604 1.901,5.702 -1.049,2.098 -3.604,2.95 -5.702,1.901 -1.426,-0.713 -6.28,-3.548 -7.415,-4.064 -1.555,-0.706 -7.404,-1.428 -8.848,-1.716 z"
   style="fill:#b69474"
   id="path52" />
        </g>
        <g
   transform="translate(82.5374,-199.082)"
   id="g53">
            <path
   d="m 933.735,693.966 c -1.976,-0.073 -6.326,-0.294 -13.212,-0.96 -2.335,-0.226 -4.047,-2.305 -3.821,-4.64 0.226,-2.335 2.305,-4.047 4.64,-3.821 10.309,0.998 13.978,0.908 14.873,1.046 l 1.84,0.676 1.036,0.927 0.647,1.1 0.283,1.119 -0.011,1.063 -0.557,1.613 -1.262,1.399 c -1.315,1.025 -3.047,1.154 -4.456,0.478 z m -1.292,-6.701 c 0.158,-0.172 0.332,-0.333 0.522,-0.481 -0.2,0.156 -0.373,0.317 -0.522,0.481 z"
   style="fill:#b69474"
   id="path53" />
        </g>
        <g
   transform="translate(82.5374,-199.082)"
   id="g54">
            <path
   d="m 470.731,639.995 c -1.319,-1.668 -1.209,-4.099 0.331,-5.639 1.658,-1.659 4.351,-1.659 6.01,0 0.36,0.36 1.107,1.413 1.871,3.094 1.85,4.074 5.22,13.453 6.628,19.366 0.543,2.282 -0.868,4.576 -3.15,5.119 -2.282,0.544 -4.576,-0.868 -5.119,-3.15 -1.44,-6.047 -5.108,-16.093 -6.556,-18.763 -0.004,-0.008 -0.01,-0.018 -0.015,-0.027 z"
   style="fill:#b69474"
   id="path54" />
        </g>
        <g
   transform="translate(82.5374,-199.082)"
   id="g55">
            <path
   d="m 459.893,662.226 c -0.117,-0.17 -0.224,-0.351 -0.319,-0.542 -1.037,-2.103 -0.172,-4.654 1.931,-5.692 l 1.193,-0.382 1.459,0.014 1.011,0.321 0.964,0.614 1.016,1.236 c 0.747,1.238 4.22,7.621 4.573,8.729 2.597,8.162 3.174,7.88 5.346,16.206 0.592,2.27 -0.77,4.593 -3.04,5.185 -2.269,0.592 -4.593,-0.77 -5.185,-3.04 -2.115,-8.106 -2.692,-7.826 -5.221,-15.774 -0.268,-0.842 -3.43,-6.357 -3.728,-6.875 z"
   style="fill:#b69474"
   id="path55" />
        </g>
        <g
   transform="translate(82.5374,-199.082)"
   id="g56">
            <path
   d="m 440.199,663.849 c 5.143,5.313 5.669,6.501 12.344,13.557 1.465,1.548 12.308,18.983 16.273,27.042 1.006,2.045 1.592,3.641 1.744,4.472 l 0.095,1.039 -0.14,1.125 c -0.571,2.275 -2.881,3.659 -5.156,3.089 -0.77,-0.193 -1.438,-0.585 -1.963,-1.108 -1.881,-0.169 -3.486,-1.587 -3.811,-3.535 -0.759,-4.557 -4.13,-10.862 -8.25,-17.303 -5.394,-8.434 -12.174,-17.015 -17.048,-22.265 -0.817,-0.846 -1.753,-1.798 -2.854,-2.899 -1.642,-1.642 -1.662,-4.299 -0.044,-5.966 1.619,-1.666 4.275,-1.725 5.965,-0.131 0.845,0.796 1.803,1.768 2.845,2.883 z"
   style="fill:#b69474"
   id="path56" />
        </g>
        <g
   transform="translate(82.5374,-199.082)"
   id="g57">
            <path
   d="m 668.429,870.706 c -1.244,-1.021 -1.853,-2.71 -1.417,-4.368 0.596,-2.269 2.922,-3.627 5.19,-3.031 l 1.703,0.799 1.225,1.267 c 0.455,0.645 1.313,2.391 4.804,7.627 1.301,1.952 0.773,4.593 -1.179,5.894 -1.952,1.301 -4.593,0.773 -5.894,-1.179 -2.562,-3.844 -3.918,-6.119 -4.432,-7.009 z"
   style="fill:#b69474"
   id="path57" />
        </g>
        <g
   transform="translate(82.5374,-199.082)"
   id="g58">
            <path
   d="m 644.632,870.899 c -1.123,-2.059 -0.364,-4.643 1.696,-5.766 2.059,-1.123 4.643,-0.363 5.766,1.696 0.967,1.772 12.599,16.132 15.895,24.373 0.871,2.178 -0.189,4.653 -2.367,5.525 -2.178,0.871 -4.654,-0.19 -5.525,-2.368 -3.183,-7.958 -14.532,-21.748 -15.465,-23.46 z"
   style="fill:#b69474"
   id="path58" />
        </g>
        <g
   transform="translate(82.5374,-199.082)"
   id="g59">
            <path
   d="m 613.721,865.705 c 0.888,-1.535 2.687,-2.407 4.52,-2.037 l 1.641,0.673 c 0.512,0.32 1.529,1.131 2.861,2.379 5.41,5.069 17.693,18.443 22.769,28.595 4.269,8.539 14.598,24.753 15.94,26.861 1.243,1.955 0.693,4.545 -1.238,5.825 -1.931,1.28 -4.531,0.777 -5.847,-1.13 -5.943,-8.618 -16.966,-26.846 -35.777,-45.657 -4.419,-4.419 -11.57,-10.08 -12.979,-11.181 -0.095,-0.074 -0.192,-0.148 -0.192,-0.148 -1.61,-1.209 -2.179,-3.433 -1.247,-5.298 1.049,-2.098 3.604,-2.949 5.702,-1.9 0.016,0.008 1.604,1.217 3.847,3.018 z"
   style="fill:#b69474"
   id="path59" />
        </g>
    </g>
    <g
   id="black"
   transform="translate(-461.37988,-304.19928)">
        <g
   id="details-black"
   serif:id="details black">
            <g
   transform="translate(82.5374,-199.082)"
   id="g60">
                <path
   d="m 1029.06,546.626 c -0.72,-2.232 0.5,-4.63 2.73,-5.353 2.23,-0.723 4.63,0.502 5.35,2.733 0.42,1.283 0.13,0.995 1.29,3.459 1,2.121 0.09,4.656 -2.03,5.657 -2.12,1.001 -4.66,0.091 -5.66,-2.03 -1.5,-3.188 -1.14,-2.807 -1.68,-4.466 z"
   style="fill:#060000"
   id="path60" />
            </g>
            <g
   transform="translate(82.5374,-199.082)"
   id="g61">
                <path
   d="m 908.633,553.628 c -1.029,-2.109 -0.152,-4.655 1.956,-5.684 2.108,-1.028 4.655,-0.152 5.683,1.956 1.748,3.583 5.592,9.328 11.08,14.918 7.728,7.87 11.238,11.037 19.183,16.731 1.906,1.367 2.345,4.024 0.978,5.93 -1.366,1.907 -4.023,2.345 -5.93,0.979 -8.402,-6.022 -12.123,-9.361 -20.296,-17.685 -6.293,-6.41 -10.649,-13.037 -12.654,-17.145 z"
   style="fill:#060000"
   id="path61" />
            </g>
            <g
   transform="translate(82.5374,-199.082)"
   id="g62">
                <path
   d="m 800.26,552.647 c -1.206,-2.012 -0.552,-4.624 1.46,-5.83 2.012,-1.206 4.625,-0.551 5.831,1.461 3.234,5.397 12.076,21.568 24.102,32.663 6.36,5.868 18.063,15.153 25.435,20.047 1.955,1.297 2.488,3.937 1.191,5.891 -1.298,1.955 -3.938,2.488 -5.892,1.191 -7.679,-5.098 -19.872,-14.769 -26.497,-20.881 -12.743,-11.756 -22.203,-28.823 -25.63,-34.542 z"
   style="fill:#060000"
   id="path62" />
            </g>
            <g
   transform="translate(82.5374,-199.082)"
   id="g63">
                <path
   d="m 699.912,545.527 c -0.55,-2.281 0.854,-4.579 3.134,-5.129 2.28,-0.55 4.578,0.854 5.129,3.134 1.075,4.453 1.064,22.839 26.171,52.022 10.207,11.863 14.622,16.325 23.908,23.327 6.721,5.067 17.696,10.985 21.733,13.601 1.969,1.275 2.532,3.909 1.256,5.877 -1.275,1.969 -3.909,2.532 -5.877,1.256 -4.132,-2.677 -15.35,-8.76 -22.23,-13.947 -9.791,-7.383 -14.471,-12.062 -25.233,-24.571 -26.827,-31.181 -26.843,-50.812 -27.991,-55.57 z"
   style="fill:#060000"
   id="path63" />
            </g>
            <g
   transform="translate(82.5374,-199.082)"
   id="g64">
                <path
   d="m 636.999,539.566 c 1.004,-2.119 3.54,-3.025 5.66,-2.021 2.12,1.004 3.026,3.54 2.022,5.66 -1.781,3.759 -14.236,37.502 -14.333,61.341 -0.083,20.661 9.813,50.076 18.783,60.68 1.515,1.79 1.291,4.474 -0.5,5.989 -1.79,1.515 -4.474,1.291 -5.989,-0.5 -9.8,-11.584 -20.885,-43.633 -20.794,-66.203 0.102,-25.238 13.266,-60.966 15.151,-64.946 z"
   style="fill:#060000"
   id="path64" />
            </g>
            <g
   transform="translate(82.5374,-199.082)"
   id="g65">
                <path
   d="m 738.072,722.802 c -2.138,-0.965 -3.091,-3.484 -2.126,-5.622 0.964,-2.138 3.483,-3.091 5.621,-2.127 13.185,5.948 44.601,11.042 75.725,11.889 31.352,0.854 62.443,-2.624 78.49,-7.973 2.225,-0.742 4.634,0.463 5.376,2.688 0.741,2.225 -0.463,4.634 -2.688,5.376 -16.647,5.549 -48.886,9.291 -81.41,8.406 -32.48,-0.884 -65.228,-6.431 -78.988,-12.637 z"
   style="fill:#060000"
   id="path65" />
            </g>
            <g
   transform="translate(82.5374,-199.082)"
   id="g66">
                <path
   d="m 531.606,732.996 c 6.225,2.35 10.718,8.283 9.975,15.481 -0.627,6.073 -5.314,13.693 -18.115,20.194 -24.418,12.402 -38.51,-4.666 -31.193,-17.195 4.319,-7.395 13.454,-14.05 22.303,-17.295 6.406,-2.35 12.66,-2.835 17.03,-1.185 z m -3.002,7.952 c -2.859,-1.079 -6.911,-0.324 -11.102,1.213 -7.045,2.584 -14.45,7.713 -17.889,13.601 -1.245,2.132 -1.036,4.387 0.446,5.978 3.266,3.505 10.404,4.002 19.558,-0.647 16.473,-8.366 15.745,-17.593 8.987,-20.145 z"
   style="fill:#060000"
   id="path66" />
            </g>
            <g
   transform="translate(82.5374,-199.082)"
   id="g67">
                <path
   d="m 523.768,768.157 c -5.801,2.893 -14.408,3.803 -18.117,-3.953 -3.084,-6.451 0.265,-11.815 6.904,-16.347 5.235,-3.573 14.001,-4.075 18.008,2.325 1.927,3.078 2.277,6.066 1.591,8.794 -0.901,3.588 -3.848,6.917 -8.386,9.181 z m -3.794,-7.607 c 2.824,-1.408 4.962,-3.337 3.384,-5.857 -0.493,-0.788 -1.331,-1.012 -2.159,-1.025 -1.367,-0.02 -2.79,0.484 -3.852,1.209 -1.448,0.989 -2.722,1.978 -3.59,3.073 -0.609,0.768 -0.909,1.6 -0.437,2.587 0.576,1.206 1.699,1.361 2.773,1.248 1.363,-0.143 2.736,-0.664 3.881,-1.235 z"
   style="fill:#060000"
   id="path67" />
            </g>
            <g
   transform="rotate(-30.195555,277.50675,440.67295)"
   id="g68">
                <path
   d="m 531.606,732.996 c 6.225,2.35 10.718,8.283 9.975,15.481 -0.627,6.073 -5.314,13.693 -18.115,20.194 -24.418,12.402 -38.51,-4.666 -31.193,-17.195 4.319,-7.395 13.454,-14.05 22.303,-17.295 6.406,-2.35 12.66,-2.835 17.03,-1.185 z m -3.002,7.952 c -2.859,-1.079 -6.911,-0.324 -11.102,1.213 -7.045,2.584 -14.45,7.713 -17.889,13.601 -1.245,2.132 -1.036,4.387 0.446,5.978 3.266,3.505 10.404,4.002 19.558,-0.647 16.473,-8.366 15.745,-17.593 8.987,-20.145 z"
   style="fill:#060000"
   id="path68" />
            </g>
            <g
   transform="rotate(-34.16078,312.71298,473.26249)"
   id="g69">
                <path
   d="m 523.768,768.157 c -5.801,2.893 -14.408,3.803 -18.117,-3.953 -3.084,-6.451 0.265,-11.815 6.904,-16.347 5.235,-3.573 14.001,-4.075 18.008,2.325 1.927,3.078 2.277,6.066 1.591,8.794 -0.901,3.588 -3.848,6.917 -8.386,9.181 z m -3.794,-7.607 c 2.824,-1.408 4.962,-3.337 3.384,-5.857 -0.493,-0.788 -1.331,-1.012 -2.159,-1.025 -1.367,-0.02 -2.79,0.484 -3.852,1.209 -1.448,0.989 -2.722,1.978 -3.59,3.073 -0.609,0.768 -0.909,1.6 -0.437,2.587 0.576,1.206 1.699,1.361 2.773,1.248 1.363,-0.143 2.736,-0.664 3.881,-1.235 z"
   style="fill:#060000"
   id="path69" />
            </g>
            <g
   transform="translate(82.5374,-199.082)"
   id="g70">
                <path
   d="m 500.605,750.895 c 0.759,-1.562 2.063,-2.905 4.981,-4.989 6.778,-4.841 6.277,-6.054 14.481,-7.39 0.469,-0.076 0.936,-0.072 1.386,0.003 1.458,-0.613 2.983,-1.149 4.134,-1.3 l 1.363,-0.061 1.134,0.163 1.361,0.538 0.863,0.634 0.384,0.04 1.751,0.602 1.151,0.715 1.043,0.997 0.992,1.582 0.428,1.423 0.021,0.03 c 0.261,0.502 0.497,1.1 0.688,1.745 0.527,1.781 0.716,4.018 0.736,4.281 0.182,2.339 -1.568,4.385 -3.907,4.568 -1.656,0.129 -3.166,-0.712 -3.971,-2.045 l -0.397,-0.11 -1.199,-0.743 -0.81,-0.866 -0.5,-0.849 -0.718,0.092 -1.663,-0.301 -1.612,-1.015 -0.722,-0.939 c -0.527,0.236 -0.911,0.412 -1.008,0.466 -1.339,0.754 -2.931,0.707 -4.195,-0.015 -1.963,0.929 -2.921,2.277 -6.273,4.671 -2.173,1.553 -2.545,2.224 -2.855,3.782 -0.171,0.857 -0.351,1.85 -0.642,3.064 l 0.724,0.436 0.832,1.088 0.424,1.194 0.026,1.467 -0.314,1.067 -0.707,1.098 -1.134,0.904 -1.076,0.412 -0.987,0.111 -0.653,-0.08 -0.775,-0.174 c 0.026,0.01 0.052,0.019 0.078,0.028 0.018,0.006 0.121,0.05 0.307,0.098 l -0.637,-0.078 -0.615,-0.242 -0.14,-0.031 -0.214,-0.108 -0.586,-0.231 -0.271,-0.201 -0.36,-0.181 -1.115,-0.931 -0.988,-1.381 -0.052,-0.134 -0.002,-0.002 c -0.674,-0.319 -1.272,-0.818 -1.715,-1.483 -0.666,-0.998 -1.042,-1.797 -1.256,-2.457 l -0.25,-1.069 -0.05,-1.189 c 0.079,-1.302 0.792,-2.497 2.158,-4.73 0.659,-1.076 1.738,-1.775 2.923,-1.974 z m 3.56,16.47 0.274,0.061 c -0.283,-0.024 -0.504,-0.068 -0.664,-0.109 z"
   style="fill:#060000"
   id="path70" />
            </g>
            <g
   transform="translate(82.5374,-199.082)"
   id="g71">
                <path
   d="m 564.13,772.146 c 1.07,-0.343 2.009,-0.477 2.822,-0.484 l 1.791,0.202 1.706,0.67 1.153,0.824 0.893,0.962 0.751,1.2 c 0.269,0.53 0.488,1.109 0.656,1.719 0.5,1.811 0.487,4.728 0.47,5.634 0.162,0.81 0.09,1.675 -0.258,2.492 -0.918,2.158 -3.416,3.165 -5.574,2.247 l -0.994,-0.592 -0.881,-0.95 -0.593,-1.262 -0.195,-1.205 c -0.028,-0.52 0.045,-1.583 -0.002,-2.755 -0.004,-0.105 -0.016,-0.231 -0.031,-0.364 l -0.303,0.078 c -0.297,0.043 -0.724,-0.134 -4.27,1.094 -1.822,0.63 -3.694,2.251 -5.433,4.219 -2.91,3.294 -5.374,7.657 -6.05,11.428 -0.253,1.412 -0.446,2.726 0.365,3.538 0.524,0.525 1.381,0.683 2.51,0.742 2.342,0.124 4.144,2.126 4.021,4.468 -0.124,2.342 -2.125,4.144 -4.468,4.021 -3.751,-0.198 -6.334,-1.479 -8.077,-3.224 -2.593,-2.596 -3.527,-6.529 -2.718,-11.045 0.916,-5.107 4.105,-11.095 8.048,-15.556 2.829,-3.203 6.057,-5.598 9.021,-6.624 3.155,-1.091 4.866,-1.395 5.64,-1.477 z"
   style="fill:#060000"
   id="path71" />
            </g>
            <g
   transform="translate(82.5374,-199.082)"
   id="g72">
                <path
   d="m 578.873,723.603 c 3.359,-0.887 6.617,-0.194 8.547,1.803 l 1.114,1.529 0.668,1.745 c 0.245,0.987 0.342,2.181 0.163,3.611 -0.392,3.136 -2.42,6.363 -5.262,8.989 -3.899,3.603 -9.203,5.971 -11.954,6.133 -3.292,0.194 -5.57,-0.84 -7.038,-2.247 l -1.205,-1.508 -0.756,-1.712 c -0.314,-1.042 -0.425,-2.207 -0.286,-3.457 0.545,-4.887 5.874,-12.211 16.009,-14.886 z m -7.362,15.328 c 0.049,0 0.095,-0.001 0.139,-0.003 1.282,-0.076 3.413,-1.294 5.382,-2.799 1.605,-1.227 3.227,-2.647 3.749,-4.237 -3.994,1.11 -6.902,3.198 -8.472,5.392 -0.338,0.472 -0.62,1.154 -0.798,1.647 z"
   style="fill:#060000"
   id="path72" />
            </g>
            <g
   transform="translate(82.5374,-199.082)"
   id="g73">
                <path
   d="m 581.678,736.266 c -0.319,0.249 -1.834,1.438 -2.831,2.317 -1.779,1.567 -3.742,3.187 -5.653,4.143 -2.098,1.049 -4.653,0.197 -5.702,-1.901 -1.049,-2.098 -0.198,-4.653 1.9,-5.702 2.274,-1.136 4.534,-3.645 6.384,-5.092 1.63,-1.275 3.191,-1.967 4.391,-2.117 2.328,-0.291 4.453,1.363 4.744,3.69 0.272,2.173 -1.15,4.169 -3.233,4.662 z"
   style="fill:#060000"
   id="path73" />
            </g>
            <g
   transform="translate(82.5374,-199.082)"
   id="g74">
                <path
   d="m 586.376,864.662 c -2.156,-0.924 -3.156,-3.424 -2.232,-5.58 0.924,-2.156 3.425,-3.156 5.581,-2.232 20.521,8.794 43.2,35.901 46.359,39.487 9.754,11.072 16.925,21.026 22.26,29.828 -10.891,-27.279 -29.009,-50.282 -37.079,-57.276 -1.773,-1.537 -1.965,-4.223 -0.429,-5.996 1.537,-1.772 4.223,-1.964 5.995,-0.428 13.069,11.326 50.723,62.062 48.712,108.307 -0.091,2.088 -1.687,3.8 -3.763,4.037 -2.077,0.238 -4.018,-1.071 -4.578,-3.085 -2.611,-9.401 -5.268,-33.185 -37.496,-69.768 -2.966,-3.367 -24.064,-29.037 -43.33,-37.294 z"
   style="fill:#060000"
   id="path74" />
            </g>
            <g
   transform="translate(82.5374,-199.082)"
   id="g75">
                <path
   d="m 649.931,869.733 c -1.646,-1.201 -2.234,-3.451 -1.293,-5.332 1.049,-2.098 3.604,-2.95 5.702,-1.901 0.441,0.221 1.499,1.002 2.711,2.46 2.677,3.219 8.072,11.007 10.712,16.193 11.934,23.437 13.258,37.313 13.974,41.373 0.372,2.108 -0.882,4.163 -2.926,4.797 -2.045,0.634 -4.241,-0.351 -5.128,-2.299 -7.154,-15.722 -17.617,-27.488 -20.301,-31.572 -2.246,-3.417 -18.034,-20.218 -19.623,-21.906 -0.917,-0.38 -1.706,-1.081 -2.181,-2.039 -1.04,-2.103 -0.178,-4.654 1.925,-5.694 l 1.172,-0.386 1.323,-0.034 1.381,0.392 1.393,0.857 c 3.906,2.967 19.118,20.194 21.713,24.141 0.801,1.219 2.266,3.103 4.124,5.562 -1.27,-2.908 -2.732,-6.02 -4.42,-9.335 -2.569,-5.045 -9.848,-14.733 -10.258,-15.277 z m -13.784,2.071 c 0.423,-0.073 0.796,-0.21 1.126,-0.373 -0.366,0.181 -0.744,0.304 -1.126,0.373 z"
   style="fill:#060000"
   id="path75" />
            </g>
            <g
   transform="translate(82.5374,-199.082)"
   id="g76">
                <path
   d="m 677.328,878.684 c -0.031,-0.067 -0.061,-0.133 -0.092,-0.199 -2.533,-5.5 -4.519,-8.482 -6.578,-10.844 -1.542,-1.768 -1.358,-4.455 0.41,-5.996 1.768,-1.542 4.455,-1.358 5.997,0.41 2.451,2.812 4.875,6.326 7.892,12.874 3.939,8.551 8.44,20.521 10.169,31.898 0.312,2.054 -0.906,4.033 -2.881,4.678 -1.974,0.646 -4.126,-0.23 -5.088,-2.072 -3.898,-7.463 -8.609,-14.664 -10.926,-17.831 -5.934,-8.111 -8.684,-11.984 -9.794,-13.327 -2.269,-2.744 -6.891,-8.242 -7.228,-8.643 -1.679,-1.328 -2.123,-3.738 -0.959,-5.592 1.248,-1.986 3.874,-2.585 5.86,-1.338 0.293,0.184 0.938,0.701 1.726,1.569 1.623,1.786 4.94,5.912 7.152,8.588 0.697,0.843 2.025,2.65 4.34,5.825 z"
   style="fill:#060000"
   id="path76" />
            </g>
            <g
   transform="translate(82.5374,-199.082)"
   id="g77">
                <path
   d="m 469.315,725.515 c 1.09,2.077 0.288,4.648 -1.789,5.737 -2.078,1.09 -4.649,0.288 -5.738,-1.789 -3.273,-6.239 -3.75,-10.545 -15.352,-29.371 -18.382,-29.827 -28.062,-47.388 -65.251,-66.069 -1.903,-0.956 -2.804,-3.172 -2.109,-5.185 0.695,-2.013 2.772,-3.2 4.859,-2.778 33.168,6.705 71.395,41.196 88.782,75.968 1.049,2.098 0.197,4.653 -1.901,5.702 -2.098,1.049 -4.653,0.198 -5.702,-1.9 -7.693,-15.387 -19.686,-30.783 -33.469,-43.402 7.587,9.514 14.038,20.242 22.027,33.205 11.808,19.159 12.312,23.532 15.643,29.882 z"
   style="fill:#060000"
   id="path77" />
            </g>
            <g
   transform="translate(82.5374,-199.082)"
   id="g78">
                <path
   d="m 480.126,674.234 c 1.337,1.668 1.232,4.113 -0.314,5.659 -1.659,1.659 -4.352,1.659 -6.011,0 l -0.945,-1.186 -0.767,-1.679 c -0.563,-1.679 -1.242,-5.221 -9,-17.12 7.532,18.288 11.249,33.228 11.907,36.406 l 0.17,1.901 -0.232,1.015 -0.44,0.882 -0.967,1.044 -1.141,0.627 c -2.205,0.8 -4.645,-0.34 -5.446,-2.545 -0.124,-0.343 -0.202,-0.692 -0.236,-1.04 -0.01,-0.05 -0.021,-0.109 -0.032,-0.161 -0.725,-3.504 -5.355,-21.883 -14.923,-42.933 -10.055,-22.121 -25.306,-37.243 -28.557,-39.733 -1.702,-1.304 -2.166,-3.67 -1.084,-5.52 1.082,-1.85 3.372,-2.605 5.342,-1.761 4.232,1.814 16.134,8.747 37.648,39.615 12.664,18.171 14.805,25.639 15.028,26.529 z"
   style="fill:#060000"
   id="path78" />
            </g>
            <g
   transform="translate(82.5374,-199.082)"
   id="g79">
                <path
   d="m 454.764,617.567 1.683,-8.145 0.368,0.157 -0.004,0.021 c 11.404,6.272 30.933,25.207 34.464,42.863 0.46,2.3 -1.034,4.541 -3.334,5.001 -2.3,0.46 -4.541,-1.034 -5.001,-3.334 -1.047,-5.235 -3.739,-10.575 -7.226,-15.556 0.671,1.91 1.224,3.849 1.619,5.792 3.474,17.082 5.146,21.496 5.989,24.485 0.636,2.258 -0.68,4.608 -2.937,5.244 -2.258,0.637 -4.608,-0.679 -5.244,-2.937 -0.864,-3.064 -2.576,-7.589 -6.137,-25.098 -2.854,-14.032 -15.199,-27.695 -17.025,-29.741 z m -1.665,-0.333 c 0.419,0.179 0.865,0.289 1.32,0.326 z"
   style="fill:#060000"
   id="path79" />
            </g>
            <g
   transform="translate(82.5374,-199.082)"
   id="g80">
                <path
   d="m 968.1,604.06 c -1.35,-1.076 -1.959,-2.917 -1.388,-4.652 0.733,-2.228 3.137,-3.442 5.365,-2.709 11.556,3.802 19.678,12.9 20.81,14.336 3.65,4.629 8.173,12.331 9.373,25.522 0.18,2.006 -1.07,3.864 -2.997,4.45 -1.927,0.587 -4,-0.259 -4.967,-2.025 -1.372,-2.508 -6.048,-18.311 -24.251,-24.93 -0.49,-0.178 -6.447,-2.622 -7.915,-3.356 -2.098,-1.049 -2.949,-3.604 -1.9,-5.702 1.049,-2.098 3.604,-2.95 5.702,-1.901 0.414,0.207 1.232,0.567 2.168,0.967 z"
   style="fill:#060000"
   id="path80" />
            </g>
            <g
   transform="translate(82.5374,-199.082)"
   id="g81">
                <path
   d="m 949.936,620.121 c -0.862,-0.81 -1.384,-1.973 -1.34,-3.247 0.082,-2.344 2.052,-4.18 4.396,-4.098 2.098,0.073 14.254,3.91 22.533,12.013 5.347,5.234 9.445,13.14 12.036,21.644 0.611,2.004 -0.33,4.154 -2.216,5.065 -1.886,0.912 -4.155,0.313 -5.346,-1.41 -1.879,-2.72 -13.142,-19.081 -34.869,-22.185 -2.322,-0.331 -3.938,-2.486 -3.606,-4.808 0.331,-2.322 2.486,-3.938 4.808,-3.606 1.23,0.176 2.431,0.388 3.604,0.632 z"
   style="fill:#060000"
   id="path81" />
            </g>
            <g
   transform="translate(82.0123,-198.013)"
   id="g82">
                <path
   d="m 932.465,640.461 c 0.525,-0.023 1.854,10e-4 4.368,0.507 -0.035,-0.013 -0.07,-0.026 -0.105,-0.039 -2.201,-0.812 -3.328,-3.258 -2.517,-5.458 0.812,-2.201 3.258,-3.329 5.459,-2.517 32.479,11.982 38.009,27.313 39.273,32.791 0.462,2 -0.572,4.044 -2.457,4.858 -1.885,0.813 -4.081,0.163 -5.22,-1.545 -1.552,-2.327 -7.6,-10.966 -29.923,-18.091 -7.872,-2.512 -8.761,-1.956 -9.405,-1.997 l -1.312,-0.256 c -2.226,-0.741 -3.43,-3.15 -2.688,-5.376 0.648,-1.944 2.568,-3.108 4.527,-2.877 z"
   style="fill:#060000"
   id="path82" />
            </g>
            <g
   transform="translate(81.7762,-198.623)"
   id="g83">
                <path
   d="m 941.614,663.165 c -6.681,-3.754 -13.693,-6.41 -15.054,-6.492 -2.342,-0.14 -4.129,-2.155 -3.989,-4.496 0.14,-2.342 2.155,-4.129 4.496,-3.989 1.842,0.111 12.391,3.648 21.222,9.036 6.634,4.047 15.677,13.074 19.555,20.951 0.863,1.752 0.42,3.868 -1.074,5.127 -1.494,1.259 -3.653,1.337 -5.234,0.19 -9.17,-6.652 -11.144,-8.24 -24.08,-12.781 -11.381,-3.996 -16.494,-2.92 -19.411,-3.032 -2.344,-0.09 -4.174,-2.066 -4.084,-4.41 0.09,-2.344 2.067,-4.174 4.411,-4.084 3.293,0.127 9.051,-1.005 21.899,3.506 0.46,0.161 0.907,0.319 1.343,0.474 z"
   style="fill:#060000"
   id="path83" />
            </g>
            <g
   transform="translate(82.5374,-199.082)"
   id="g84">
                <path
   d="m 931.951,688.529 c -3.665,-0.791 -7.395,-1.298 -11.155,-1.593 -2.338,-0.182 -4.088,-2.23 -3.906,-4.568 0.183,-2.339 2.23,-4.089 4.569,-3.906 8.942,0.7 17.721,2.517 25.977,6.133 7.097,3.109 13.059,4.696 20.375,13.051 1.254,1.432 1.403,3.523 0.364,5.118 -1.038,1.595 -3.01,2.306 -4.827,1.74 -11.054,-3.447 -22.334,-6.445 -31.959,-7.487 -5.874,-0.637 -11.077,-0.577 -15.088,0.76 -2.225,0.742 -4.634,-0.462 -5.376,-2.688 -0.742,-2.225 0.463,-4.634 2.688,-5.376 4.891,-1.63 11.202,-1.926 18.338,-1.184 z"
   style="fill:#060000"
   id="path84" />
            </g>
            <g
   transform="translate(82.5374,-199.082)"
   id="g85">
                <path
   d="m 923.625,662.112 c -2.3,-0.46 -3.794,-2.701 -3.334,-5.001 0.46,-2.3 2.701,-3.794 5.001,-3.334 1.753,0.35 8.81,1.455 10.699,2.313 1.176,0.535 6.219,3.459 7.698,4.199 2.098,1.049 2.95,3.604 1.901,5.702 -1.049,2.098 -3.604,2.95 -5.702,1.901 -1.426,-0.713 -6.28,-3.548 -7.415,-4.064 -1.555,-0.706 -7.404,-1.428 -8.848,-1.716 z"
   style="fill:#060000"
   id="path85" />
            </g>
            <g
   transform="translate(82.5374,-199.082)"
   id="g86">
                <path
   d="m 933.735,693.966 c -1.976,-0.073 -6.326,-0.294 -13.212,-0.96 -2.335,-0.226 -4.047,-2.305 -3.821,-4.64 0.226,-2.335 2.305,-4.047 4.64,-3.821 10.309,0.998 13.978,0.908 14.873,1.046 l 1.84,0.676 1.036,0.927 0.647,1.1 0.283,1.119 -0.011,1.063 -0.557,1.613 -1.262,1.399 c -1.315,1.025 -3.047,1.154 -4.456,0.478 z m -1.292,-6.701 c 0.158,-0.172 0.332,-0.333 0.522,-0.481 -0.2,0.156 -0.373,0.317 -0.522,0.481 z"
   style="fill:#060000"
   id="path86" />
            </g>
            <g
   transform="translate(82.5374,-199.082)"
   id="g87">
                <path
   d="m 470.731,639.995 c -1.319,-1.668 -1.209,-4.099 0.331,-5.639 1.658,-1.659 4.351,-1.659 6.01,0 0.36,0.36 1.107,1.413 1.871,3.094 1.85,4.074 5.22,13.453 6.628,19.366 0.543,2.282 -0.868,4.576 -3.15,5.119 -2.282,0.544 -4.576,-0.868 -5.119,-3.15 -1.44,-6.047 -5.108,-16.093 -6.556,-18.763 -0.004,-0.008 -0.01,-0.018 -0.015,-0.027 z"
   style="fill:#060000"
   id="path87" />
            </g>
            <g
   transform="translate(82.5374,-199.082)"
   id="g88">
                <path
   d="m 459.893,662.226 c -0.117,-0.17 -0.224,-0.351 -0.319,-0.542 -1.037,-2.103 -0.172,-4.654 1.931,-5.692 l 1.193,-0.382 1.459,0.014 1.011,0.321 0.964,0.614 1.016,1.236 c 0.747,1.238 4.22,7.621 4.573,8.729 2.597,8.162 3.174,7.88 5.346,16.206 0.592,2.27 -0.77,4.593 -3.04,5.185 -2.269,0.592 -4.593,-0.77 -5.185,-3.04 -2.115,-8.106 -2.692,-7.826 -5.221,-15.774 -0.268,-0.842 -3.43,-6.357 -3.728,-6.875 z"
   style="fill:#060000"
   id="path88" />
            </g>
            <g
   transform="translate(82.5374,-199.082)"
   id="g89">
                <path
   d="m 440.199,663.849 c 5.143,5.313 5.669,6.501 12.344,13.557 1.465,1.548 12.308,18.983 16.273,27.042 1.006,2.045 1.592,3.641 1.744,4.472 l 0.095,1.039 -0.14,1.125 c -0.571,2.275 -2.881,3.659 -5.156,3.089 -0.77,-0.193 -1.438,-0.585 -1.963,-1.108 -1.881,-0.169 -3.486,-1.587 -3.811,-3.535 -0.759,-4.557 -4.13,-10.862 -8.25,-17.303 -5.394,-8.434 -12.174,-17.015 -17.048,-22.265 -0.817,-0.846 -1.753,-1.798 -2.854,-2.899 -1.642,-1.642 -1.662,-4.299 -0.044,-5.966 1.619,-1.666 4.275,-1.725 5.965,-0.131 0.845,0.796 1.803,1.768 2.845,2.883 z"
   style="fill:#060000"
   id="path89" />
            </g>
            <g
   transform="translate(82.5374,-199.082)"
   id="g90">
                <path
   d="m 668.429,870.706 c -1.244,-1.021 -1.853,-2.71 -1.417,-4.368 0.596,-2.269 2.922,-3.627 5.19,-3.031 l 1.703,0.799 1.225,1.267 c 0.455,0.645 1.313,2.391 4.804,7.627 1.301,1.952 0.773,4.593 -1.179,5.894 -1.952,1.301 -4.593,0.773 -5.894,-1.179 -2.562,-3.844 -3.918,-6.119 -4.432,-7.009 z"
   style="fill:#060000"
   id="path90" />
            </g>
            <g
   transform="translate(82.5374,-199.082)"
   id="g91">
                <path
   d="m 644.632,870.899 c -1.123,-2.059 -0.364,-4.643 1.696,-5.766 2.059,-1.123 4.643,-0.363 5.766,1.696 0.967,1.772 12.599,16.132 15.895,24.373 0.871,2.178 -0.189,4.653 -2.367,5.525 -2.178,0.871 -4.654,-0.19 -5.525,-2.368 -3.183,-7.958 -14.532,-21.748 -15.465,-23.46 z"
   style="fill:#060000"
   id="path91" />
            </g>
            <g
   transform="translate(82.5374,-199.082)"
   id="g92">
                <path
   d="m 613.721,865.705 c 0.888,-1.535 2.687,-2.407 4.52,-2.037 l 1.641,0.673 c 0.512,0.32 1.529,1.131 2.861,2.379 5.41,5.069 17.693,18.443 22.769,28.595 4.269,8.539 14.598,24.753 15.94,26.861 1.243,1.955 0.693,4.545 -1.238,5.825 -1.931,1.28 -4.531,0.777 -5.847,-1.13 -5.943,-8.618 -16.966,-26.846 -35.777,-45.657 -4.419,-4.419 -11.57,-10.08 -12.979,-11.181 -0.095,-0.074 -0.192,-0.148 -0.192,-0.148 -1.61,-1.209 -2.179,-3.433 -1.247,-5.298 1.049,-2.098 3.604,-2.949 5.702,-1.9 0.016,0.008 1.604,1.217 3.847,3.018 z"
   style="fill:#060000"
   id="path92" />
            </g>
        </g>
        <g
   id="outline-black"
   serif:id="outline black">
            <g
   transform="translate(82.5374,-199.082)"
   id="g93">
                <path
   d="m 468.566,797.446 c 0.707,2.237 -0.535,4.626 -2.772,5.333 -2.237,0.707 -4.626,-0.535 -5.333,-2.772 -1.295,-4.097 -3.078,-22.835 -1.459,-48.008 2.395,-37.211 12.109,-88.65 40.918,-127.06 39.743,-52.991 107.416,-98.691 164.389,-110.086 2.3,-0.46 4.541,1.034 5.001,3.334 0.46,2.3 -1.034,4.541 -3.334,5.001 -55.227,11.045 -120.732,55.484 -159.256,106.851 -27.762,37.015 -36.928,86.647 -39.235,122.506 -1.515,23.54 -0.13,41.07 1.081,44.901 z"
   id="path93" />
            </g>
            <g
   transform="translate(82.5374,-199.082)"
   id="g94">
                <path
   d="m 468.163,796.511 c 0.082,0.086 0.196,0.203 0.29,0.294 5.009,4.867 28.493,22.844 30.421,23.93 25.059,14.126 61.931,41.974 161.411,40.443 67.435,-1.037 142.085,-30.502 174.83,-57.908 50.169,-41.989 61.775,-63.722 86.538,-99.024 1.347,-1.92 4,-2.386 5.92,-1.039 1.921,1.347 2.386,4 1.039,5.92 -25.181,35.899 -37.025,57.963 -88.042,100.661 -33.754,28.251 -110.64,58.82 -180.154,59.889 C 558.28,871.249 520.427,842.643 494.7,828.14 c -1.802,-1.016 -21.552,-16.016 -29.613,-22.938 -1.874,-1.61 -3.178,-2.873 -3.692,-3.522 l -0.632,-0.978 -0.345,-0.922 c -0.582,-2.273 0.791,-4.59 3.064,-5.171 1.852,-0.474 3.733,0.351 4.681,1.902 z"
   id="path94" />
            </g>
            <g
   transform="translate(82.5374,-199.082)"
   id="g95">
                <path
   d="m 661.132,517.611 c 0.547,-1.552 1.974,-2.711 3.719,-2.831 2.34,-0.16 4.37,1.609 4.531,3.949 l -0.277,1.853 c -0.152,0.409 -0.994,2.067 -2.313,4.752 -4.979,10.137 -17.238,36.719 -19.927,66.399 -1.752,19.344 0.56,40.048 11.967,58.207 12.32,19.614 35.189,36.108 74.403,45.072 50.686,11.586 88.241,20.218 180.842,8.643 0.92,-0.115 6.077,-0.988 9.613,-1.661 2.304,-0.438 4.531,1.077 4.969,3.382 0.438,2.304 -1.077,4.531 -3.381,4.969 -3.732,0.71 -9.176,1.623 -10.147,1.745 -94.11,11.763 -132.277,2.983 -183.791,-8.792 -42.138,-9.632 -66.466,-27.76 -79.706,-48.837 -12.45,-19.82 -15.146,-42.381 -13.234,-63.495 2.809,-31.005 15.561,-58.79 20.762,-69.38 0.918,-1.867 1.775,-3.586 1.97,-3.975 z"
   id="path95" />
            </g>
            <g
   transform="translate(82.5374,-199.082)"
   id="g96">
                <path
   d="m 656.007,551.134 c -2.114,1.016 -4.656,0.126 -5.672,-1.988 -1.017,-2.114 -0.127,-4.655 1.987,-5.672 16.143,-7.766 15.788,-8.488 33.067,-13.552 2.297,-0.674 18.874,-4.746 29.493,-5.568 2.339,-0.181 4.384,1.571 4.565,3.909 0.181,2.339 -1.57,4.385 -3.909,4.566 -9.995,0.773 -25.596,4.616 -27.758,5.25 -16.609,4.868 -16.256,5.59 -31.773,13.055 z"
   id="path96" />
            </g>
            <g
   transform="translate(82.5374,-199.082)"
   id="g97">
                <path
   d="m 917.272,706.395 c 0.775,2.214 -0.393,4.64 -2.607,5.415 -2.214,0.775 -4.641,-0.393 -5.416,-2.607 -1.202,-3.435 -1.114,-7.656 -0.386,-11.602 0.968,-5.242 2.97,-9.932 3.374,-10.875 3.378,-7.881 4.615,-8.559 8.269,-12.004 1.707,-1.609 4.399,-1.529 6.007,0.178 1.609,1.707 1.53,4.399 -0.177,6.008 -2.787,2.626 -3.711,3.157 -6.286,9.166 -0.337,0.787 -2.02,4.696 -2.828,9.07 -0.455,2.465 -0.701,5.105 0.05,7.251 z"
   id="path97" />
            </g>
            <g
   transform="translate(82.5374,-199.082)"
   id="g98">
                <path
   d="m 710.988,529.082 c -0.27,-2.33 1.402,-4.442 3.732,-4.712 2.33,-0.271 4.441,1.401 4.712,3.731 1.127,9.706 8.871,59.814 75.324,98.075 52.058,29.973 100.712,40.869 120.478,45.229 5.545,1.223 9.04,2.085 10.087,2.609 2.098,1.049 2.95,3.604 1.901,5.702 -1.049,2.098 -3.604,2.949 -5.702,1.9 -0.838,-0.419 -3.679,-0.932 -8.117,-1.91 -20.163,-4.448 -69.784,-15.589 -122.889,-46.164 -70.55,-40.62 -78.329,-94.156 -79.526,-104.46 z"
   id="path98" />
            </g>
            <g
   transform="translate(82.5374,-199.082)"
   id="g99">
                <path
   d="m 723.071,548.154 c -2.224,0.748 -4.636,-0.45 -5.384,-2.673 -0.748,-2.223 0.45,-4.635 2.673,-5.383 27.172,-9.142 73.57,-11.919 96.636,-4.23 2.225,0.741 3.429,3.15 2.687,5.376 -0.741,2.225 -3.15,3.429 -5.375,2.687 -21.78,-7.259 -65.58,-4.409 -91.237,4.223 z"
   id="path99" />
            </g>
            <g
   transform="translate(82.5374,-199.082)"
   id="g100">
                <path
   d="m 917.085,672.71 c 0.002,0.761 -0.2,1.531 -0.627,2.227 -1.226,1.999 -3.845,2.627 -5.845,1.401 l -1.214,-1.113 -0.722,-1.508 -0.136,-1.578 0.351,-1.712 c 1.067,-3.497 6.44,-14.628 14.009,-24.668 5.192,-6.887 11.427,-13.218 17.891,-16.499 2.092,-1.062 4.652,-0.226 5.714,1.865 1.061,2.092 0.225,4.652 -1.866,5.714 -5.447,2.765 -10.577,8.234 -14.952,14.037 -6.644,8.813 -11.511,18.5 -12.603,21.834 z m -0.558,-2.102 c -0.386,-0.71 -0.926,-1.182 -1.47,-1.516 0.632,0.388 1.127,0.914 1.47,1.516 z"
   id="path100" />
            </g>
            <g
   transform="translate(82.5374,-199.082)"
   id="g101">
                <path
   d="m 811.435,540.395 c -0.294,-2.327 1.356,-4.455 3.683,-4.749 2.327,-0.295 4.456,1.356 4.75,3.683 1.361,10.76 10.817,22.026 21.685,32.073 17.186,15.888 38.357,28.459 41.641,30.298 4.953,2.774 28.634,16.574 60.866,27.318 2.225,0.741 3.43,3.15 2.688,5.375 -0.742,2.226 -3.151,3.43 -5.376,2.688 -33.006,-11.002 -57.259,-25.124 -62.332,-27.965 -3.411,-1.91 -25.404,-14.968 -43.257,-31.472 -12.492,-11.548 -22.784,-24.881 -24.348,-37.249 z"
   id="path101" />
            </g>
            <g
   transform="translate(82.5374,-199.082)"
   id="g102">
                <path
   d="m 941.025,632.318 c -1.555,1.757 -4.243,1.92 -6,0.366 -1.756,-1.555 -1.919,-4.244 -0.365,-6 7.311,-8.258 9.763,-10.594 22.572,-21.588 7.829,-6.72 12.714,-9.627 24.024,-15.205 2.103,-1.037 4.654,-0.172 5.691,1.932 1.038,2.104 0.172,4.654 -1.932,5.691 -10.463,5.161 -15.004,7.816 -22.247,14.032 -12.333,10.585 -14.704,12.821 -21.743,20.772 z"
   id="path102" />
            </g>
            <g
   transform="translate(82.5374,-199.082)"
   id="g103">
                <path
   d="m 915.598,540.457 c -1.099,-2.073 -0.309,-4.647 1.763,-5.747 2.072,-1.099 4.647,-0.309 5.746,1.763 3.331,6.278 11.263,17.628 22.403,27.35 20.61,17.987 33.456,22.913 39.273,25.338 2.165,0.902 3.191,3.392 2.288,5.558 -0.902,2.165 -3.393,3.19 -5.558,2.288 -6.156,-2.566 -19.778,-7.742 -41.592,-26.78 -12.113,-10.572 -20.701,-22.944 -24.323,-29.77 z"
   id="path103" />
            </g>
            <g
   transform="translate(82.5374,-199.082)"
   id="g104">
                <path
   d="m 820.138,549.753 c -2.047,0.107 -3.929,-1.285 -4.373,-3.353 l -0.087,-1.222 0.196,-1.016 0.633,-1.238 0.884,-0.895 0.938,-0.538 1.021,-0.29 1.719,0.022 c 3.019,0.485 20.594,7.191 51.695,5.463 15.093,-0.838 40.385,-9.873 44.69,-12.023 2.098,-1.048 4.653,-0.196 5.701,1.903 1.048,2.098 0.195,4.653 -1.903,5.701 -4.626,2.31 -31.801,12.005 -48.017,12.906 -29.569,1.643 -49.971,-4.422 -53.097,-5.42 z m 3.182,-1.697 c 0.75,-0.89 1.062,-2.012 0.756,-3.44 0.268,1.25 -0.044,2.491 -0.756,3.44 z"
   id="path104" />
            </g>
            <g
   transform="translate(82.5374,-199.082)"
   id="g105">
                <path
   d="m 922.851,548.922 c -2.251,-0.658 -3.545,-3.021 -2.887,-5.272 0.658,-2.251 3.021,-3.545 5.272,-2.887 3.591,1.05 10.567,4.442 43.157,1.479 49.317,-4.483 65.307,-11.504 70.567,-13.841 2.15,-0.952 4.66,0.014 5.61,2.158 0.95,2.143 -0.01,4.657 -2.16,5.61 -5.46,2.426 -22.04,9.883 -73.247,14.539 -34.979,3.179 -42.458,-0.66 -46.312,-1.786 z"
   id="path105" />
            </g>
            <g
   transform="translate(82.5374,-199.082)"
   id="g106">
                <path
   d="m 983.977,592.255 c -1.074,1.511 -3.059,2.193 -4.891,1.54 -2.209,-0.787 -3.364,-3.22 -2.577,-5.43 0.038,-0.105 0.576,-1.259 2.174,-2.897 3.34,-3.425 13.494,-12.584 33.087,-21.587 10.74,-4.933 23.59,-11.392 40.54,-13.013 2.34,-0.223 4.42,1.491 4.64,3.826 0.22,2.335 -1.49,4.412 -3.83,4.635 -15.82,1.514 -27.78,7.671 -37.8,12.276 -20.218,9.289 -29.57,18.618 -31.293,20.592 -0.016,0.018 -0.034,0.039 -0.05,0.058 z"
   id="path106" />
            </g>
            <g
   transform="translate(82.5374,-199.082)"
   id="g107">
                <path
   d="m 1037,534.394 c -1.17,-2.036 -0.46,-4.634 1.58,-5.799 2.03,-1.164 4.63,-0.456 5.8,1.58 0.44,0.767 0.76,1.655 1.12,2.867 0.51,1.771 1.27,4.589 4.03,9.816 2.57,4.863 5.88,8.918 6.19,9.235 1.66,1.659 1.66,4.352 0,6.011 -1.65,1.658 -4.35,1.658 -6.01,0 -0.39,-0.39 -4.55,-5.306 -7.7,-11.277 -2.76,-5.227 -3.79,-8.394 -4.41,-10.492 -0.26,-0.874 -0.33,-1.474 -0.6,-1.941 z"
   id="path107" />
            </g>
            <g
   transform="translate(82.5374,-199.082)"
   id="g108">
                <path
   d="m 1085.3,533.643 c -16.8,0.726 -29.76,2.2 -39.85,5.883 -2.21,0.804 -4.65,-0.332 -5.45,-2.536 -0.81,-2.203 0.33,-4.645 2.54,-5.449 10.87,-3.969 24.86,-5.658 43.08,-6.419 14.62,-0.611 23.35,-0.269 42.68,2.646 2.15,0.325 3.71,2.23 3.61,4.408 -0.11,2.178 -1.84,3.923 -4.02,4.038 -6.1,0.323 -44.19,2.292 -74.35,17.372 -2.1,1.049 -4.65,0.198 -5.7,-1.9 -1.05,-2.098 -0.2,-4.653 1.9,-5.702 11.43,-5.715 23.94,-9.641 35.56,-12.341 z"
   id="path108" />
            </g>
            <g
   transform="translate(82.5374,-199.082)"
   id="g109">
                <path
   d="m 1130.17,533.774 c -1.89,1.385 -4.55,0.973 -5.94,-0.92 -1.38,-1.893 -0.97,-4.555 0.92,-5.94 5.64,-4.124 35.84,-39.02 84.97,-15.622 17.99,8.564 46.9,18.368 77.82,19.841 7.65,0.364 43.47,3.03 82.13,-14.572 2.14,-0.972 4.66,-0.028 5.63,2.107 0.97,2.135 0.03,4.657 -2.11,5.629 -40.51,18.446 -78.03,15.708 -86.05,15.326 -32.21,-1.534 -62.34,-11.735 -81.07,-20.657 -44.2,-21.048 -71.23,11.097 -76.3,14.808 z"
   id="path109" />
            </g>
            <g
   transform="translate(82.5374,-199.082)"
   id="g110">
                <path
   d="m 1123.26,536.535 c -2.35,-0.012 -4.24,-1.927 -4.23,-4.272 0.01,-2.346 1.92,-4.24 4.27,-4.228 5.97,0.031 23.82,-3.154 37.89,-0.42 11.06,2.148 19.86,7.777 21.52,19.473 0.6,4.268 -0.35,10.541 -2.21,18.058 -2.53,10.247 -6.66,23.069 -9.57,36.23 -2.33,10.564 -3.9,21.351 -3.06,31.12 0.78,9.064 3.64,17.229 10.26,23.24 14.15,12.855 34.41,31.29 71.57,30.875 2.35,-0.026 4.27,1.857 4.3,4.202 0.02,2.346 -1.86,4.271 -4.2,4.298 -40.12,0.448 -62.11,-19.204 -77.39,-33.084 -12.88,-11.705 -14.85,-29.864 -12.25,-48.916 2.19,-15.989 7.47,-32.579 11.01,-45.837 2.15,-8.035 3.73,-14.701 3.12,-18.992 -1.1,-7.737 -7.4,-10.902 -14.72,-12.323 -13.49,-2.62 -30.59,0.605 -36.31,0.576 z"
   id="path110" />
            </g>
        </g>
    </g>
    <g
   transform="matrix(0.731714,0,0,0.731714,-153.63988,-287.29578)"
   id="g112">
        <g
   id="name">
            <g
   transform="matrix(220.606,0,0,220.606,1380.13,956.335)"
   id="g111">
            </g>
            <text
   x="891.84497"
   y="956.33502"
   style="font-weight:500;font-stretch:condensed;font-size:220.606px;font-family:Futura-CondensedMedium, Futura, sans-serif"
   id="text111">TRIOPS</text>
        </g>
    </g>
</svg>
