<?xml version="1.0" encoding="UTF-8" standalone="no"?>
<!DOCTYPE svg PUBLIC "-//W3C//DTD SVG 1.1//EN" "http://www.w3.org/Graphics/SVG/1.1/DTD/svg11.dtd">
<svg width="100%" height="100%" viewBox="0 0 1007 510" version="1.1" xmlns="http://www.w3.org/2000/svg" xmlns:xlink="http://www.w3.org/1999/xlink" xml:space="preserve" xmlns:serif="http://www.serif.com/" style="fill-rule:evenodd;clip-rule:evenodd;stroke-linejoin:round;stroke-miterlimit:2;">
    <g id="fill-brownish" serif:id="fill brownish">
        <g transform="matrix(1,0,0,1,-373.963,-484.082)">
            <path d="M466.144,736.532C465.46,732.349 464.023,714.518 480.566,680.858C486.701,655.83 492.095,643.862 511.555,623.18C525.188,604.152 545.233,581.493 573.35,561.25C576.935,558.668 605.808,538.158 620.543,532.579C622.239,531.937 623.983,531.617 625.703,531.59L628.139,529.273L633.406,526.906L635.334,526.69C642.364,523.955 650.475,526.795 654.194,533.551C657.525,539.605 656.315,546.954 651.66,551.638C651.666,553.177 651.436,554.742 650.948,556.286C646.705,569.713 644.1,579.055 642.451,586.888L643.785,590.301L644.11,596.044C643.929,599.224 642.909,605.96 641.264,618.991C642.51,620.644 643.435,622.577 643.931,624.713C644.8,628.464 645.573,631.709 646.324,634.555C647.783,638.627 649.843,643.701 651.883,648.898C656.225,655.664 662.968,659.459 675.657,669.61C679.901,673.005 678.905,673.616 682.841,677.551C683.285,677.996 683.674,678.322 684.04,678.571C688.348,679.512 693.217,681.129 698.751,683.61C706.284,686.987 709.758,695.748 706.587,703.369C703.416,710.991 694.752,714.701 687.047,711.738C682.89,710.139 679.701,709.046 677.136,708.185C676.643,708.102 676.123,708.038 675.725,707.996C675.351,708.631 674.656,709.825 673.847,711.28C677.877,714.835 679.832,720.366 678.678,725.849C672.987,752.88 664.967,781.799 659.756,803.815C657.701,812.496 656.183,822.331 655.458,827.446C659.262,833.708 658.085,841.992 652.342,846.915C652.191,847.044 652.039,847.17 651.885,847.292L651.175,850.201L649.492,853.703L646.919,856.948L643.346,859.696L639.79,861.28L635.762,862.108L633.311,862.109L632.955,862.677L627.916,866.222L621.625,867.538L615.908,866.53C615.109,866.249 613.994,865.779 612.536,865.023C601.264,863.156 561.55,858.351 554.025,854.798L548.518,850.884L545.179,845.594L545.149,845.405C537.16,844.609 531.972,841.406 530.073,840.031C517.438,838.93 516.95,839.532 505.606,832.679L499.979,828.131L496.318,821.925L495.693,818.872C486.957,816.924 479.262,812.937 473.137,804.77C463.201,791.522 465.455,790.473 464.365,770.348C464.253,768.281 464.559,766.283 465.213,764.439C464.819,763.436 464.528,762.379 464.352,761.28C462.962,752.592 463.624,748.382 464.611,744.122C465.066,742.155 465.774,740.176 466.144,736.532ZM635.737,526.645L638.339,526.354C637.591,526.363 636.745,526.384 635.737,526.645ZM643.353,530.627C642.439,530.142 641.452,529.743 640.413,529.486L643.353,530.627ZM494.393,765.941C495.622,766.68 497.052,767.45 498.618,768.127C501.148,769.219 504.215,770.673 507.101,769.342C512.486,766.856 516.661,765.661 520.156,764.769C522.911,764.067 524.457,763.965 526.945,759.984C530.254,754.689 532.486,750.365 533.814,746.76C534.288,745.473 534.62,743.934 534.801,742.959C533.726,742.214 532.001,741.011 531.154,740.373L528.166,737.225C526.019,737.781 522.937,738.574 520.146,739.272C516.272,740.24 512.299,739.633 508.991,737.776C505.448,744.991 502.86,749.957 501.852,751.268L496.693,756.311L495.841,756.707C495.05,759.509 494.212,762.479 494.092,762.913C493.995,763.265 493.887,763.612 493.767,763.952C494.018,764.592 494.227,765.256 494.393,765.941ZM492.484,758.264L490.694,759.095C490.716,759.119 490.739,759.143 490.761,759.167C491.304,758.968 491.869,758.7 492.484,758.264ZM526.198,735.153L525.529,734.448C525.725,734.757 525.955,734.981 526.198,735.153ZM543.586,787.35C543.848,788.601 543.955,789.9 543.89,791.223C543.756,793.969 543.849,796.365 543.939,798.438C545.204,799.711 546.557,801.111 547.758,802.432C549.922,804.812 551.199,807.704 551.591,810.69C553.435,809.883 558.216,807.879 562.967,804.238C566.698,801.38 570.829,797.361 571.579,791.365C572.427,784.583 572.467,778.85 572.438,776.499C572.143,776.168 571.864,775.842 571.657,775.573C571.097,774.845 570.15,772.832 569.286,770.859C565.784,771.629 562.09,771.145 558.871,769.437C558.306,769.138 557.765,768.805 557.248,768.442C555.955,770.876 554.475,773.439 552.789,776.137C549.47,781.448 546.478,784.929 543.586,787.35ZM558.565,809.427C557.739,809.401 556.816,809.443 555.793,809.59L558.565,809.427ZM577.429,729.843C577.482,729.607 577.535,729.373 577.587,729.143L577.346,728.996C577.373,729.277 577.401,729.559 577.429,729.843Z" style="fill:rgb(242,218,199);"/>
        </g>
        <g transform="matrix(1,0,0,1,-456.5,-285)">
            <path d="M735.904,325.562C736.392,325.322 736.95,325.053 737.605,324.744C737.764,324.668 737.933,324.633 738.099,324.633C738.417,324.394 738.754,324.143 739.111,323.877C739.153,323.821 739.19,323.773 739.222,323.734C740.823,321.763 741.663,320.785 741.996,320.453L742.342,320.166L742.621,320.037L743.063,319.987L743.548,320.134L743.784,320.31L743.959,320.526L744.078,320.778L744.136,321.068L744.063,321.573C744.028,321.669 743.933,321.865 743.768,322.127C743.688,322.254 743.587,322.407 743.469,322.582C743.712,322.583 743.957,322.66 744.165,322.819C744.669,323.204 744.768,323.924 744.387,324.431C744.384,324.436 744.38,324.44 744.377,324.445C743.249,325.945 742.447,327.014 741.788,327.903C741.35,328.615 740.97,329.237 740.636,329.788C740.313,330.382 739.936,331.106 739.377,332.188C738.961,332.995 738.55,333.808 738.067,334.577C737.871,334.888 737.665,335.192 737.455,335.493C737.342,335.713 737.222,335.947 737.09,336.202C737.063,336.253 737.036,336.305 737.009,336.357C737.009,336.358 737.008,336.359 737.008,336.36C736.886,336.592 736.697,336.765 736.477,336.869C736.264,337.174 736.055,337.481 735.858,337.796C735.538,338.304 734.883,338.483 734.35,338.208C733.817,337.933 733.583,337.296 733.811,336.741L734.032,336.205C734.132,335.963 734.304,335.773 734.514,335.65C734.646,335.461 734.779,335.274 734.913,335.087C734.747,334.891 734.649,334.642 734.64,334.381C734.398,334.675 734.201,334.886 734.039,335.018L733.605,335.293L733.174,335.42L732.722,335.409L732.287,335.249L731.817,334.853L731.532,334.344C731.405,333.986 731.385,333.527 731.505,333.02C731.637,332.462 731.963,331.802 732.28,331.246L732.209,331.25L731.86,331.158L731.816,331.132C731.614,331.306 731.352,331.412 731.065,331.413C730.694,331.414 730.364,331.24 730.152,330.969C729.987,331.043 729.815,331.12 729.635,331.199C729.071,331.45 728.409,331.212 728.133,330.659C727.858,330.106 728.066,329.434 728.606,329.134C731.708,327.41 731.699,327.446 734.753,325.59C735.116,325.369 735.554,325.372 735.904,325.562Z" style="fill:rgb(242,218,199);"/>
        </g>
        <g transform="matrix(1,0,0,1,-373.963,-484.082)">
            <path d="M635.912,839.95C636.037,839.627 636.174,839.309 636.322,838.994L635.699,837.832L634.705,833.703L634.788,829.734L636.509,824.432L638.526,821.566L637.717,820.692L635.235,815.506L634.497,811.946L634.588,808.377L635.53,804.707L637.427,800.855C639.726,796.975 646.35,788.366 654.346,778.062C654.066,777.107 653.885,776.142 653.797,775.178C651.531,775.42 649.188,775.675 646.763,775.945C639.327,776.771 632.392,772.077 630.394,764.867C628.397,757.657 631.93,750.064 638.731,746.947C641.401,745.723 643.959,744.551 646.409,743.428C648.246,737.294 653.853,732.753 660.599,732.571L660.726,732.586L660.726,732.568C664.303,732.501 667.634,732.419 670.738,732.327C673.093,731.26 675.277,730.274 677.305,729.364C677.264,728.994 677.237,728.62 677.223,728.242C675.835,727.802 674.419,727.291 673.282,726.746C667.3,723.875 663.864,717.464 664.785,710.893C665.705,704.323 670.771,699.103 677.311,697.987C701.073,693.93 700.865,695.149 725.041,696.974C729.707,697.326 733.732,699.748 736.272,703.28C736.812,703.305 737.358,703.33 737.91,703.359C748.442,703.905 760.78,704.757 780.057,712.873C785.063,714.981 793.024,714.343 800.974,713.886C812.195,713.24 823.461,712.049 830.691,712.478C833.097,712.621 835.217,712.921 837,713.337L842.07,715.112L843.673,716.14C848.424,716.43 872.987,717.699 882.789,713.614C887.035,711.845 891.753,712.118 895.683,714.161C898.066,714.853 900.313,716.138 902.191,718.015C908.138,723.962 908.138,733.619 902.191,739.566C900.463,741.294 898.487,743.008 895.9,745.286C891.784,751.237 887.07,756.48 881.9,761.118C881.512,761.89 881.077,762.713 880.59,763.588C878.026,768.203 846.955,809.482 789.222,830.729L789.17,830.794L783.314,835.164C744.629,855.72 724.51,857.856 719.002,858.517C698.202,861.013 688.002,864.618 679.301,866.971C668.315,869.942 659.234,871.481 640.576,868.495C634.009,867.445 628.882,862.256 627.909,855.676C626.959,849.251 630.187,842.948 635.912,839.95ZM848.102,719.787L848.565,720.257C848.458,720.123 848.299,719.964 848.102,719.787ZM825.333,739.876C825.343,739.874 825.352,739.873 825.362,739.871L824.767,739.296C824.911,739.476 825.105,739.672 825.333,739.876Z" style="fill:rgb(242,218,199);"/>
        </g>
        <g transform="matrix(1,0,0,1,-373.963,-484.082)">
            <path d="M893.905,714.741C893.474,714.605 893.177,714.194 893.195,713.729C893.216,713.206 893.629,712.784 894.151,712.751C894.437,712.733 895.554,712.664 897.011,712.595C898.057,711.841 899.031,711.54 901.299,711.719C901.706,711.751 902.897,712.121 904.051,712.457C904.152,712.46 904.252,712.463 904.349,712.467C906.781,711.921 909.748,711.235 913.382,710.366C913.898,710.242 914.423,710.535 914.589,711.039C914.615,711.117 914.63,711.196 914.637,711.275C914.785,711.196 914.937,711.115 915.09,711.033C915.577,710.772 916.182,710.946 916.456,711.424C916.575,711.63 916.613,711.86 916.581,712.078C916.583,712.08 916.585,712.082 916.587,712.085C916.666,712.18 916.725,712.287 916.764,712.398C916.767,712.403 916.771,712.408 916.774,712.413C916.806,712.463 916.833,712.514 916.856,712.568C917.274,712.297 917.834,712.367 918.172,712.747C918.465,713.077 918.506,713.547 918.304,713.915C918.639,714.312 918.624,714.907 918.253,715.286C918.251,715.289 918.248,715.291 918.245,715.294C915.611,717.99 913.741,719.919 912.394,721.316C911.769,722.336 911.143,723.354 910.396,724.284C904.845,731.182 903.846,730.067 897.709,736.519C897.321,736.927 896.675,736.943 896.267,736.555C895.859,736.167 895.843,735.52 896.231,735.113C899.751,731.412 901.568,730.228 903.542,728.56C903.146,728.775 902.646,728.706 902.323,728.373C902.135,728.179 902.039,727.927 902.036,727.674C901.974,727.556 901.938,727.43 901.926,727.302C901.513,727.52 900.992,727.433 900.676,727.066C900.315,726.648 900.353,726.019 900.76,725.647C900.811,725.6 900.861,725.554 900.911,725.509C900.479,725.684 899.97,725.543 899.694,725.147C899.379,724.697 899.477,724.079 899.916,723.748C899.916,723.748 904.248,720.483 904.253,720.48C900.647,722.444 899.783,722.925 897.619,724.169C897.611,724.174 897.602,724.179 897.593,724.184C897.11,724.462 896.493,724.3 896.208,723.821C895.923,723.342 896.076,722.723 896.551,722.431L896.576,722.415L897.086,722.101C897,722.023 896.926,721.928 896.869,721.818C896.612,721.323 896.799,720.714 897.29,720.45C897.299,720.445 897.308,720.44 897.318,720.435C898.412,719.845 899.371,719.33 900.229,718.872C899.673,719.007 899.119,719.149 898.571,719.307L897.419,719.671L897.392,719.679C896.86,719.847 896.292,719.556 896.116,719.027C896.099,718.973 896.086,718.919 896.077,718.864C896.03,718.875 895.983,718.886 895.936,718.897C895.41,719.018 894.88,718.708 894.728,718.19C894.639,717.885 894.698,717.571 894.866,717.326C893.984,717.467 893.301,717.562 892.913,717.591C892.713,717.606 892.562,717.605 892.466,717.597L892.123,717.52L891.753,717.276L891.602,717.082L891.49,716.814L891.455,716.536L891.489,716.288L891.629,715.975L891.82,715.757C892.348,715.295 892.727,715.05 893.905,714.741Z" style="fill:rgb(242,218,199);"/>
        </g>
        <g transform="matrix(1,0,0,1,-373.963,-484.082)">
            <path d="M860.644,590.753C864.551,593.595 867.928,596.075 870.538,598.001C871.012,598.127 871.482,598.282 871.947,598.466C874.143,598.502 876.356,599.118 878.35,600.365L899.39,613.515C901.009,614.526 902.317,615.849 903.285,617.359C908.96,619.524 915.53,621.705 926.226,625.503C931.439,627.353 934.814,632.411 934.522,637.934C934.231,643.457 930.343,648.132 924.965,649.424C924.249,649.596 923.405,649.86 922.819,650.053C922.42,651.051 921.689,652.91 921.138,654.472C920.4,656.564 919.136,658.381 917.512,659.781C917.564,660.083 917.597,660.347 917.605,660.558L917.193,664.454L915.936,667.635C912.873,673.181 906.142,675.557 900.275,673.16C881.333,665.423 873.774,668.288 849.39,655.837C841.858,651.991 822.698,645.696 804.439,636.827C790.744,630.175 777.614,622.069 768.985,612.825C764.531,608.052 762.872,604.562 762.339,602.843C748.2,594.836 743.917,592.86 734.339,575.222C731.412,572.964 724.971,566.993 721.297,555.971C719.971,551.994 720.729,547.616 723.314,544.316C725.9,541.015 729.969,539.232 734.148,539.567C751.119,540.928 753.248,538.646 770.155,537.109L777.159,537.684C781.941,538.658 790.591,541.433 803.887,539.036C808.706,538.167 813.589,540.194 816.376,544.22C830.707,564.921 848.392,580.96 860.644,590.753Z" style="fill:rgb(242,218,199);"/>
        </g>
        <g transform="matrix(1,0,0,1,-373.963,-484.082)">
            <path d="M933.137,551.967C933.163,551.818 933.194,551.673 933.232,551.532L933.646,550.489L934.405,549.48C935.581,548.324 938.234,547.248 942.837,550.125C943.609,550.607 944.211,551.074 944.676,551.508C944.881,551.478 945.09,551.447 945.306,551.416C945.733,551.001 946.296,550.721 946.931,550.648C956.942,549.511 958.514,549.662 965.786,549.61C968.617,549.286 971.807,548.999 975.42,548.777C975.818,548.753 976.202,548.813 976.554,548.943C981.209,548.224 986.811,547.185 994.871,545.573C1006.08,543.331 1006.42,545.067 1020.54,540.247C1024.48,538.901 1036.05,537.626 1037.41,537.48C1038.69,537.343 1039.9,538.102 1040.33,539.315C1040.58,540.023 1040.53,540.778 1040.23,541.424C1040.32,541.567 1040.4,541.72 1040.46,541.881C1040.58,542.181 1040.64,542.49 1040.65,542.795C1040.89,542.899 1041.12,543.037 1041.33,543.206C1042.61,543.091 1043.82,543.872 1044.23,545.123C1044.46,545.841 1044.39,546.59 1044.07,547.222C1044.12,547.312 1044.16,547.406 1044.19,547.503C1044.31,547.82 1044.37,548.146 1044.36,548.466C1045.26,548.782 1045.96,549.542 1046.16,550.53C1046.47,551.996 1045.56,553.44 1044.11,553.8C1043.94,553.84 1043.55,553.938 1042.97,554.081C1042.94,554.092 1042.9,554.103 1042.86,554.113C1042.7,554.15 1042.55,554.188 1042.39,554.225C1040.72,554.641 1038.07,555.304 1035.23,556.026C1034.05,556.332 1033,556.612 1032.07,556.866L1031.65,557.84L1030.76,558.723C1029.97,559.292 1028.13,560.092 1027.93,560.173C1024.12,561.763 1020.7,563.214 1017.63,564.541C1015.23,566.476 1002.58,572.627 993.637,576.13C992.993,576.516 992.421,576.873 991.904,577.209C991.141,577.73 990.339,578.283 989.491,578.873C989.389,578.947 989.288,579.021 989.188,579.094C989.114,579.575 988.914,580.038 988.591,580.431C988.304,580.979 986.369,584.612 984.918,585.957C984.548,586.299 984.171,586.572 983.803,586.776L982.753,587.192L981.643,587.304L980.462,587.053C980.438,587.044 980.413,587.034 980.388,587.024C980.301,587.056 980.219,587.084 980.141,587.107C979.259,587.373 978.789,587.2 977.928,587.284C972.687,587.797 970,588.041 969.006,588.04L968.07,587.955L967.08,587.553L966.292,586.804L965.857,585.855L965.783,584.945L965.952,584.187L966.542,583.236L966.608,583.19C966.142,582.816 965.722,582.372 965.397,581.864L965.009,581.099C963.639,581.154 962.499,580.817 961.752,580.21L960.974,579.333L960.544,578.397L960.345,577.103C960.341,576.868 960.354,576.621 960.384,576.362C960.255,576.283 960.135,576.203 960.024,576.122C959.415,576.197 958.808,576.22 958.213,576.181C957.072,576.105 956.216,575.804 955.582,575.425L954.784,574.817L954.134,574.011L953.97,573.652C953.606,573.619 953.274,573.555 952.979,573.464L951.759,572.855L951.189,572.342L950.724,571.706L950.341,570.686L950.331,570.406C949.96,570.421 949.653,570.408 949.399,570.376L947.988,569.978L947.299,569.558L946.704,568.986L946.215,568.14L945.603,567.975L944.933,567.639C943.472,567.37 942.496,566.841 941.89,566.299L940.962,565.117L940.67,564.394L940.524,563.641L940.632,562.229L940.92,561.496L940.334,561.218L939.195,560.202C938.999,559.959 938.788,559.646 938.574,559.24C937.71,558.969 936.792,558.588 935.776,558.08L935.41,557.835C935.21,557.735 935.025,557.629 934.855,557.517L933.885,556.689L933.309,555.875L932.966,555.01L932.841,554.038C932.841,553.221 932.956,552.537 933.137,551.967Z" style="fill:rgb(242,218,199);"/>
        </g>
    </g>
    <g id="fill-greyish" serif:id="fill greyish">
        <g transform="matrix(1,0,0,1,-373.963,-484.082)">
            <path d="M850.245,554.846C851.333,554.231 852.59,553.88 853.928,553.88C855.274,553.88 856.591,553.86 857.879,553.824C864.52,552.417 866.569,552.482 875.27,552.131C890.504,549.518 900.164,544.694 906.768,542.728C912.014,541.167 916.137,541.157 919.536,542.538C922.996,543.944 926.234,546.847 928.731,552.878C929.224,553.707 934.008,561.648 940.293,568.551C947.366,576.319 957.335,584.754 969.562,586.978C973.071,587.616 975.644,590.638 975.713,594.204C975.782,597.769 973.329,600.889 969.847,601.663C964.245,602.908 958.06,605.792 952.703,609.087C953.019,611.37 952.277,613.756 950.524,615.473C950.094,615.894 942.067,623.723 937.474,627.118C936.252,628.022 935.168,628.684 934.354,629.076L931.975,629.884L928.813,629.883L927.294,629.414L925.696,628.499L924.627,627.475C923.39,627.265 922.045,626.967 920.574,626.566L918.578,625.739L916.319,624.029C915.001,622.78 911.76,619.009 911.413,618.605C904.985,614.669 897.554,614.083 890.126,611.908C880.663,609.138 871.139,604.578 862.632,592.519C859.67,591.116 859.032,590.746 857.307,589.399L855.19,587.138C854.861,586.66 854.385,585.767 854.123,585.26C853.411,584.481 852.888,583.575 852.563,582.61C852.14,582.096 851.708,581.59 851.256,581.105C850.113,580.48 848.971,579.678 847.647,578.555C837.018,569.536 838.192,568.257 824.148,559.687C820.916,557.715 819.663,553.642 821.228,550.195C822.793,546.748 826.684,545.01 830.295,546.144C840.557,549.367 839.713,551.132 849.867,554.716C849.995,554.761 850.12,554.804 850.245,554.846Z" style="fill:rgb(220,205,193);"/>
        </g>
        <g transform="matrix(1,0,0,1,-373.963,-484.082)">
            <path d="M647.988,571.071C648.305,566.442 648.906,563.24 649.565,561.137C649.574,558.362 650.251,555.606 651.893,552.994C653.979,549.674 657.927,546.225 665.693,544.006C693.059,536.187 701.767,531.548 705.103,530.525L708.05,529.987L711.195,530.42L714.242,532.198L716.263,534.821C731.901,563.596 728.351,566.691 734.14,582.554C734.425,582.815 734.694,583.101 734.942,583.412C741.13,591.146 744.379,593.819 746.352,595.842C748.502,598.045 749.744,599.792 750.874,603.073C752.581,604.652 754.533,606.342 756.801,608.177C767.582,616.899 784.882,629.158 818.243,645.838C831.248,652.341 841.479,653.765 848.873,655.08C852.887,655.794 856.229,656.535 858.926,657.659C877.608,665.443 889.363,671.094 896.959,674.536C899.364,675.626 901.694,676.534 903.27,677.119C905.241,674.526 908.757,673.438 911.94,674.671C915.769,676.154 917.69,680.443 916.248,684.288C911.594,696.699 910.304,702.287 909.939,703.894C909.481,705.908 908.212,707.644 906.432,708.691C904.652,709.739 902.518,710.005 900.535,709.426C898.711,708.894 897.056,708.394 895.539,707.921C889.87,709.997 882.34,711.363 873.77,712.07C838.67,714.968 784.934,707.497 781.875,706.842C770.784,704.465 740.455,700.36 717.766,694.743C707.155,692.115 698.12,689.056 692.881,685.836C689.156,683.546 686.899,680.861 685.803,678.29C682.829,679.75 679.217,679.085 676.96,676.603C665.983,664.528 652.425,651.515 646.395,629.889C642.358,615.41 641.629,597.014 647.661,572.337C647.773,571.879 647.882,571.458 647.988,571.071ZM719.052,586.442C719.264,588.001 719.452,589.411 719.613,590.626L720.22,589.528L720.432,589.309C719.958,588.317 719.498,587.362 719.052,586.442Z" style="fill:rgb(220,205,193);"/>
        </g>
        <g transform="matrix(1,0,0,1,-373.963,-484.082)">
            <path d="M1056.62,547.323C1056.29,547.489 1055.95,547.633 1055.6,547.753C1051.68,549.08 1047.43,546.977 1046.1,543.061L1045.7,540.747L1046.11,538.233L1046.95,536.513L1048.58,534.757L1050.14,533.805C1051.22,533.294 1057.19,530.67 1068.51,528.406C1069.58,528.192 1074.56,527.855 1076.68,527.29C1080.68,526.224 1084.79,528.603 1085.85,532.598C1086.92,536.594 1084.54,540.703 1080.54,541.768C1078.18,542.398 1072.64,542.861 1071.44,543.1C1062.8,544.829 1057.21,547.081 1056.62,547.323Z" style="fill:rgb(220,205,193);"/>
        </g>
    </g>
    <g id="black">
        <g id="eyes">
            <g transform="matrix(1,0,0,1,-456.5,-285)">
                <path d="M595.376,556.897C595.418,556.844 595.46,556.792 595.503,556.74C596.583,555.431 598.123,554.134 599.856,553.266C600.14,553.085 600.423,552.916 600.703,552.761C602.391,551.825 604.021,551.396 605.324,551.665C606.272,551.86 606.842,552.295 607.165,552.814C607.774,553.177 608.129,553.636 608.309,554.113C608.364,554.257 608.404,554.408 608.429,554.565L608.501,554.592L608.896,554.913L609.201,555.419L609.299,555.933C609.475,556.391 609.344,556.924 608.949,557.245C608.929,557.261 608.908,557.277 608.888,557.294C607.958,558.84 605.16,561.153 604.973,561.305C602.065,563.661 599.225,564.106 598.569,564.223C598.562,564.225 598.554,564.226 598.547,564.227C598.203,564.322 597.837,564.25 597.556,564.043C597.487,564.046 597.421,564.046 597.357,564.044C597.027,564.205 596.757,564.321 596.563,564.383C595.461,564.735 594.646,564.801 594.088,564.712C594.045,564.705 594.003,564.697 593.962,564.688C592.62,564.729 591.647,564.294 591.181,563.569L591.004,563.138L590.985,562.658C591.028,562.313 591.321,561.633 591.915,560.802C592.664,559.753 593.909,558.318 595.376,556.897ZM598.135,558.816C598.629,558.414 599.147,558.008 599.674,557.614C600.125,557.278 600.583,556.952 601.041,556.646C600.868,556.598 600.7,556.569 600.536,556.559C599.625,557.242 598.794,558.033 598.135,558.816ZM597.521,559.845C597.5,559.997 597.493,560.139 597.497,560.271C597.818,560.192 598.143,560.09 598.469,559.966C598.908,559.753 599.335,559.508 599.744,559.241C599.706,559.28 599.667,559.319 599.629,559.357C599.88,559.177 600.141,558.995 600.41,558.814C600.942,558.455 601.502,558.1 602.065,557.766C602.216,557.637 602.365,557.506 602.51,557.376C602.403,557.31 602.3,557.246 602.201,557.186C602.183,557.199 602.165,557.211 602.147,557.223C602.161,557.208 602.175,557.194 602.189,557.179C601.959,557.041 601.749,556.923 601.553,556.834C601.465,556.795 601.378,556.759 601.293,556.728C599.923,557.467 598.771,558.415 597.959,559.319C597.799,559.497 597.652,559.673 597.521,559.845ZM599.744,559.241C600.469,558.514 601.303,557.804 602.147,557.223C601.475,557.942 600.653,558.647 599.744,559.241Z" style="fill:white;"/>
            </g>
            <g transform="matrix(1,0,0,1,-456.5,-285)">
                <path d="M643.674,583.696C644.334,583.092 644.853,582.711 645.096,582.523C645.109,582.513 645.125,582.501 645.137,582.492C645.483,582.159 646.005,582.072 646.445,582.287C646.928,582.523 647.184,583.061 647.063,583.585C646.977,583.955 646.911,584.328 646.857,584.704C647.568,583.97 648.131,583.551 648.537,583.363L649.188,583.175L649.731,583.207L650.045,583.318L650.326,583.496L650.713,583.952C650.877,584.239 650.995,584.671 650.985,585.239C650.975,585.78 650.839,586.524 650.602,587.394C650.634,587.44 650.663,587.488 650.688,587.538C650.704,587.546 650.719,587.554 650.735,587.563C651.28,587.872 651.48,588.56 651.184,589.113L650.325,590.719C650.262,591.345 650.171,591.965 650.017,592.573C649.345,595.22 644.878,602.127 642.913,603.612C641.674,604.548 640.733,604.383 640.175,603.964C639.938,603.786 639.72,603.497 639.564,603.101C639.141,603.131 638.76,603.073 638.419,602.949C638.361,602.984 638.304,603.014 638.25,603.041C638.079,603.124 637.918,603.183 637.769,603.221L637.21,603.281L636.806,603.214L636.422,603.047L636.016,602.707L635.806,602.416L635.662,602.12C635.454,601.603 635.377,600.765 635.498,599.71C635.519,599.533 635.545,599.348 635.576,599.156C635.471,599.128 635.369,599.085 635.272,599.026C634.765,598.716 634.575,598.074 634.833,597.539C638.158,590.621 638.186,590.696 642.25,584.153C642.549,583.671 643.153,583.479 643.674,583.696Z" style="fill:white;"/>
            </g>
        </g>
        <g id="details-black" serif:id="details black">
            <g transform="matrix(1,0,0,1,-373.963,-484.082)">
                <path d="M1029.06,546.626C1028.34,544.394 1029.56,541.996 1031.79,541.273C1034.02,540.55 1036.42,541.775 1037.14,544.006C1037.56,545.289 1037.27,545.001 1038.43,547.465C1039.43,549.586 1038.52,552.121 1036.4,553.122C1034.28,554.123 1031.74,553.213 1030.74,551.092C1029.24,547.904 1029.6,548.285 1029.06,546.626Z" style="fill:rgb(6,0,0);"/>
            </g>
            <g transform="matrix(1,0,0,1,-373.963,-484.082)">
                <path d="M908.633,553.628C907.604,551.519 908.481,548.973 910.589,547.944C912.697,546.916 915.244,547.792 916.272,549.9C918.02,553.483 921.864,559.228 927.352,564.818C935.08,572.688 938.59,575.855 946.535,581.549C948.441,582.916 948.88,585.573 947.513,587.479C946.147,589.386 943.49,589.824 941.583,588.458C933.181,582.436 929.46,579.097 921.287,570.773C914.994,564.363 910.638,557.736 908.633,553.628Z" style="fill:rgb(6,0,0);"/>
            </g>
            <g transform="matrix(1,0,0,1,-373.963,-484.082)">
                <path d="M800.26,552.647C799.054,550.635 799.708,548.023 801.72,546.817C803.732,545.611 806.345,546.266 807.551,548.278C810.785,553.675 819.627,569.846 831.653,580.941C838.013,586.809 849.716,596.094 857.088,600.988C859.043,602.285 859.576,604.925 858.279,606.879C856.981,608.834 854.341,609.367 852.387,608.07C844.708,602.972 832.515,593.301 825.89,587.189C813.147,575.433 803.687,558.366 800.26,552.647Z" style="fill:rgb(6,0,0);"/>
            </g>
            <g transform="matrix(1,0,0,1,-373.963,-484.082)">
                <path d="M699.912,545.527C699.362,543.246 700.766,540.948 703.046,540.398C705.326,539.848 707.624,541.252 708.175,543.532C709.25,547.985 709.239,566.371 734.346,595.554C744.553,607.417 748.968,611.879 758.254,618.881C764.975,623.948 775.95,629.866 779.987,632.482C781.956,633.757 782.519,636.391 781.243,638.359C779.968,640.328 777.334,640.891 775.366,639.615C771.234,636.938 760.016,630.855 753.136,625.668C743.345,618.285 738.665,613.606 727.903,601.097C701.076,569.916 701.06,550.285 699.912,545.527Z" style="fill:rgb(6,0,0);"/>
            </g>
            <g transform="matrix(1,0,0,1,-373.963,-484.082)">
                <path d="M636.999,539.566C638.003,537.447 640.539,536.541 642.659,537.545C644.779,538.549 645.685,541.085 644.681,543.205C642.9,546.964 630.445,580.707 630.348,604.546C630.265,625.207 640.161,654.622 649.131,665.226C650.646,667.016 650.422,669.7 648.631,671.215C646.841,672.73 644.157,672.506 642.642,670.715C632.842,659.131 621.757,627.082 621.848,604.512C621.95,579.274 635.114,543.546 636.999,539.566Z" style="fill:rgb(6,0,0);"/>
            </g>
            <g transform="matrix(1,0,0,1,-373.963,-484.082)">
                <path d="M738.072,722.802C735.934,721.837 734.981,719.318 735.946,717.18C736.91,715.042 739.429,714.089 741.567,715.053C754.752,721.001 786.168,726.095 817.292,726.942C848.644,727.796 879.735,724.318 895.782,718.969C898.007,718.227 900.416,719.432 901.158,721.657C901.899,723.882 900.695,726.291 898.47,727.033C881.823,732.582 849.584,736.324 817.06,735.439C784.58,734.555 751.832,729.008 738.072,722.802Z" style="fill:rgb(6,0,0);"/>
            </g>
            <g transform="matrix(1,0,0,1,-373.963,-484.082)">
                <path d="M531.606,732.996C537.831,735.346 542.324,741.279 541.581,748.477C540.954,754.55 536.267,762.17 523.466,768.671C499.048,781.073 484.956,764.005 492.273,751.476C496.592,744.081 505.727,737.426 514.576,734.181C520.982,731.831 527.236,731.346 531.606,732.996ZM528.604,740.948C525.745,739.869 521.693,740.624 517.502,742.161C510.457,744.745 503.052,749.874 499.613,755.762C498.368,757.894 498.577,760.149 500.059,761.74C503.325,765.245 510.463,765.742 519.617,761.093C536.09,752.726 535.362,743.5 528.604,740.948Z" style="fill:rgb(6,0,0);"/>
            </g>
            <g transform="matrix(1,0,0,1,-373.963,-484.082)">
                <path d="M523.768,768.157C517.967,771.05 509.36,771.96 505.651,764.204C502.567,757.753 505.916,752.389 512.555,747.857C517.79,744.284 526.556,743.782 530.563,750.182C532.49,753.26 532.84,756.248 532.154,758.976C531.253,762.564 528.306,765.893 523.768,768.157ZM519.974,760.55C522.798,759.142 524.936,757.213 523.358,754.693C522.865,753.905 522.027,753.681 521.199,753.668C519.832,753.648 518.409,754.152 517.347,754.877C515.899,755.866 514.625,756.855 513.757,757.95C513.148,758.718 512.848,759.55 513.32,760.537C513.896,761.743 515.019,761.898 516.093,761.785C517.456,761.642 518.829,761.121 519.974,760.55Z" style="fill:rgb(6,0,0);"/>
            </g>
            <g transform="matrix(0.864314,-0.502953,0.502953,0.864314,-640.484,-85.6339)">
                <path d="M531.606,732.996C537.831,735.346 542.324,741.279 541.581,748.477C540.954,754.55 536.267,762.17 523.466,768.671C499.048,781.073 484.956,764.005 492.273,751.476C496.592,744.081 505.727,737.426 514.576,734.181C520.982,731.831 527.236,731.346 531.606,732.996ZM528.604,740.948C525.745,739.869 521.693,740.624 517.502,742.161C510.457,744.745 503.052,749.874 499.613,755.762C498.368,757.894 498.577,760.149 500.059,761.74C503.325,765.245 510.463,765.742 519.617,761.093C536.09,752.726 535.362,743.5 528.604,740.948Z" style="fill:rgb(6,0,0);"/>
            </g>
            <g transform="matrix(0.827465,-0.561517,0.561517,0.827465,-668.291,-27.7521)">
                <path d="M523.768,768.157C517.967,771.05 509.36,771.96 505.651,764.204C502.567,757.753 505.916,752.389 512.555,747.857C517.79,744.284 526.556,743.782 530.563,750.182C532.49,753.26 532.84,756.248 532.154,758.976C531.253,762.564 528.306,765.893 523.768,768.157ZM519.974,760.55C522.798,759.142 524.936,757.213 523.358,754.693C522.865,753.905 522.027,753.681 521.199,753.668C519.832,753.648 518.409,754.152 517.347,754.877C515.899,755.866 514.625,756.855 513.757,757.95C513.148,758.718 512.848,759.55 513.32,760.537C513.896,761.743 515.019,761.898 516.093,761.785C517.456,761.642 518.829,761.121 519.974,760.55Z" style="fill:rgb(6,0,0);"/>
            </g>
            <g transform="matrix(1,0,0,1,-373.963,-484.082)">
                <path d="M500.605,750.895C501.364,749.333 502.668,747.99 505.586,745.906C512.364,741.065 511.863,739.852 520.067,738.516C520.536,738.44 521.003,738.444 521.453,738.519C522.911,737.906 524.436,737.37 525.587,737.219L526.95,737.158L528.084,737.321L529.445,737.859L530.308,738.493L530.692,738.533L532.443,739.135L533.594,739.85L534.637,740.847L535.629,742.429L536.057,743.852L536.078,743.882C536.339,744.384 536.575,744.982 536.766,745.627C537.293,747.408 537.482,749.645 537.502,749.908C537.684,752.247 535.934,754.293 533.595,754.476C531.939,754.605 530.429,753.764 529.624,752.431L529.227,752.321L528.028,751.578L527.218,750.712L526.718,749.863L526,749.955L524.337,749.654L522.725,748.639L522.003,747.7C521.476,747.936 521.092,748.112 520.995,748.166C519.656,748.92 518.064,748.873 516.8,748.151C514.837,749.08 513.879,750.428 510.527,752.822C508.354,754.375 507.982,755.046 507.672,756.604C507.501,757.461 507.321,758.454 507.03,759.668L507.754,760.104L508.586,761.192L509.01,762.386L509.036,763.853L508.722,764.92L508.015,766.018L506.881,766.922L505.805,767.334L504.818,767.445L504.165,767.365L503.39,767.191C503.416,767.201 503.442,767.21 503.468,767.219C503.486,767.225 503.589,767.269 503.775,767.317L503.138,767.239L502.523,766.997L502.383,766.966L502.169,766.858L501.583,766.627L501.312,766.426L500.952,766.245L499.837,765.314L498.849,763.933L498.797,763.799L498.795,763.797C498.121,763.478 497.523,762.979 497.08,762.314C496.414,761.316 496.038,760.517 495.824,759.857L495.574,758.788L495.524,757.599C495.603,756.297 496.316,755.102 497.682,752.869C498.341,751.793 499.42,751.094 500.605,750.895ZM504.165,767.365L504.439,767.426C504.156,767.402 503.935,767.358 503.775,767.317L504.165,767.365Z" style="fill:rgb(6,0,0);"/>
            </g>
            <g transform="matrix(1,0,0,1,-373.963,-484.082)">
                <path d="M564.13,772.146C565.2,771.803 566.139,771.669 566.952,771.662L568.743,771.864L570.449,772.534L571.602,773.358L572.495,774.32L573.246,775.52C573.515,776.05 573.734,776.629 573.902,777.239C574.402,779.05 574.389,781.967 574.372,782.873C574.534,783.683 574.462,784.548 574.114,785.365C573.196,787.523 570.698,788.53 568.54,787.612L567.546,787.02L566.665,786.07L566.072,784.808L565.877,783.603C565.849,783.083 565.922,782.02 565.875,780.848C565.871,780.743 565.859,780.617 565.844,780.484L565.541,780.562C565.244,780.605 564.817,780.428 561.271,781.656C559.449,782.286 557.577,783.907 555.838,785.875C552.928,789.169 550.464,793.532 549.788,797.303C549.535,798.715 549.342,800.029 550.153,800.841C550.677,801.366 551.534,801.524 552.663,801.583C555.005,801.707 556.807,803.709 556.684,806.051C556.56,808.393 554.559,810.195 552.216,810.072C548.465,809.874 545.882,808.593 544.139,806.848C541.546,804.252 540.612,800.319 541.421,795.803C542.337,790.696 545.526,784.708 549.469,780.247C552.298,777.044 555.526,774.649 558.49,773.623C561.645,772.532 563.356,772.228 564.13,772.146Z" style="fill:rgb(6,0,0);"/>
            </g>
            <g transform="matrix(1,0,0,1,-373.963,-484.082)">
                <path d="M578.873,723.603C582.232,722.716 585.49,723.409 587.42,725.406L588.534,726.935L589.202,728.68C589.447,729.667 589.544,730.861 589.365,732.291C588.973,735.427 586.945,738.654 584.103,741.28C580.204,744.883 574.9,747.251 572.149,747.413C568.857,747.607 566.579,746.573 565.111,745.166L563.906,743.658L563.15,741.946C562.836,740.904 562.725,739.739 562.864,738.489C563.409,733.602 568.738,726.278 578.873,723.603ZM571.511,738.931C571.56,738.931 571.606,738.93 571.65,738.928C572.932,738.852 575.063,737.634 577.032,736.129C578.637,734.902 580.259,733.482 580.781,731.892C576.787,733.002 573.879,735.09 572.309,737.284C571.971,737.756 571.689,738.438 571.511,738.931Z" style="fill:rgb(6,0,0);"/>
            </g>
            <g transform="matrix(1,0,0,1,-373.963,-484.082)">
                <path d="M581.678,736.266C581.359,736.515 579.844,737.704 578.847,738.583C577.068,740.15 575.105,741.77 573.194,742.726C571.096,743.775 568.541,742.923 567.492,740.825C566.443,738.727 567.294,736.172 569.392,735.123C571.666,733.987 573.926,731.478 575.776,730.031C577.406,728.756 578.967,728.064 580.167,727.914C582.495,727.623 584.62,729.277 584.911,731.604C585.183,733.777 583.761,735.773 581.678,736.266Z" style="fill:rgb(6,0,0);"/>
            </g>
            <g transform="matrix(1,0,0,1,-373.963,-484.082)">
                <path d="M586.376,864.662C584.22,863.738 583.22,861.238 584.144,859.082C585.068,856.926 587.569,855.926 589.725,856.85C610.246,865.644 632.925,892.751 636.084,896.337C645.838,907.409 653.009,917.363 658.344,926.165C647.453,898.886 629.335,875.883 621.265,868.889C619.492,867.352 619.3,864.666 620.836,862.893C622.373,861.121 625.059,860.929 626.831,862.465C639.9,873.791 677.554,924.527 675.543,970.772C675.452,972.86 673.856,974.572 671.78,974.809C669.703,975.047 667.762,973.738 667.202,971.724C664.591,962.323 661.934,938.539 629.706,901.956C626.74,898.589 605.642,872.919 586.376,864.662Z" style="fill:rgb(6,0,0);"/>
            </g>
            <g transform="matrix(1,0,0,1,-373.963,-484.082)">
                <path d="M649.931,869.733C648.285,868.532 647.697,866.282 648.638,864.401C649.687,862.303 652.242,861.451 654.34,862.5C654.781,862.721 655.839,863.502 657.051,864.96C659.728,868.179 665.123,875.967 667.763,881.153C679.697,904.59 681.021,918.466 681.737,922.526C682.109,924.634 680.855,926.689 678.811,927.323C676.766,927.957 674.57,926.972 673.683,925.024C666.529,909.302 656.066,897.536 653.382,893.452C651.136,890.035 635.348,873.234 633.759,871.546C632.842,871.166 632.053,870.465 631.578,869.507C630.538,867.404 631.4,864.853 633.503,863.813L634.675,863.427L635.998,863.393L637.379,863.785L638.772,864.642C642.678,867.609 657.89,884.836 660.485,888.783C661.286,890.002 662.751,891.886 664.609,894.345C663.339,891.437 661.877,888.325 660.189,885.01C657.62,879.965 650.341,870.277 649.931,869.733ZM636.147,871.804C636.57,871.731 636.943,871.594 637.273,871.431C636.907,871.612 636.529,871.735 636.147,871.804Z" style="fill:rgb(6,0,0);"/>
            </g>
            <g transform="matrix(1,0,0,1,-373.963,-484.082)">
                <path d="M677.328,878.684C677.297,878.617 677.267,878.551 677.236,878.485C674.703,872.985 672.717,870.003 670.658,867.641C669.116,865.873 669.3,863.186 671.068,861.645C672.836,860.103 675.523,860.287 677.065,862.055C679.516,864.867 681.94,868.381 684.957,874.929C688.896,883.48 693.397,895.45 695.126,906.827C695.438,908.881 694.22,910.86 692.245,911.505C690.271,912.151 688.119,911.275 687.157,909.433C683.259,901.97 678.548,894.769 676.231,891.602C670.297,883.491 667.547,879.618 666.437,878.275C664.168,875.531 659.546,870.033 659.209,869.632C657.53,868.304 657.086,865.894 658.25,864.04C659.498,862.054 662.124,861.455 664.11,862.702C664.403,862.886 665.048,863.403 665.836,864.271C667.459,866.057 670.776,870.183 672.988,872.859C673.685,873.702 675.013,875.509 677.328,878.684Z" style="fill:rgb(6,0,0);"/>
            </g>
            <g transform="matrix(1,0,0,1,-373.963,-484.082)">
                <path d="M469.315,725.515C470.405,727.592 469.603,730.163 467.526,731.252C465.448,732.342 462.877,731.54 461.788,729.463C458.515,723.224 458.038,718.918 446.436,700.092C428.054,670.265 418.374,652.704 381.185,634.023C379.282,633.067 378.381,630.851 379.076,628.838C379.771,626.825 381.848,625.638 383.935,626.06C417.103,632.765 455.33,667.256 472.717,702.028C473.766,704.126 472.914,706.681 470.816,707.73C468.718,708.779 466.163,707.928 465.114,705.83C457.421,690.443 445.428,675.047 431.645,662.428C439.232,671.942 445.683,682.67 453.672,695.633C465.48,714.792 465.984,719.165 469.315,725.515Z" style="fill:rgb(6,0,0);"/>
            </g>
            <g transform="matrix(1,0,0,1,-373.963,-484.082)">
                <path d="M480.126,674.234C481.463,675.902 481.358,678.347 479.812,679.893C478.153,681.552 475.46,681.552 473.801,679.893L472.856,678.707L472.089,677.028C471.526,675.349 470.847,671.807 463.089,659.908C470.621,678.196 474.338,693.136 474.996,696.314L475.166,698.215L474.934,699.23L474.494,700.112L473.527,701.156L472.386,701.783C470.181,702.583 467.741,701.443 466.94,699.238C466.816,698.895 466.738,698.546 466.704,698.198C466.694,698.148 466.683,698.089 466.672,698.037C465.947,694.533 461.317,676.154 451.749,655.104C441.694,632.983 426.443,617.861 423.192,615.371C421.49,614.067 421.026,611.701 422.108,609.851C423.19,608.001 425.48,607.246 427.45,608.09C431.682,609.904 443.584,616.837 465.098,647.705C477.762,665.876 479.903,673.344 480.126,674.234Z" style="fill:rgb(6,0,0);"/>
            </g>
            <g transform="matrix(1,0,0,1,-373.963,-484.082)">
                <path d="M454.764,617.567L456.447,609.422L456.815,609.579L456.811,609.6C468.215,615.872 487.744,634.807 491.275,652.463C491.735,654.763 490.241,657.004 487.941,657.464C485.641,657.924 483.4,656.43 482.94,654.13C481.893,648.895 479.201,643.555 475.714,638.574C476.385,640.484 476.938,642.423 477.333,644.366C480.807,661.448 482.479,665.862 483.322,668.851C483.958,671.109 482.642,673.459 480.385,674.095C478.127,674.732 475.777,673.416 475.141,671.158C474.277,668.094 472.565,663.569 469.004,646.06C466.15,632.028 453.805,618.365 451.979,616.319L454.764,617.567ZM453.099,617.234C453.518,617.413 453.964,617.523 454.419,617.56L453.099,617.234Z" style="fill:rgb(6,0,0);"/>
            </g>
            <g transform="matrix(1,0,0,1,-373.963,-484.082)">
                <path d="M968.1,604.06C966.75,602.984 966.141,601.143 966.712,599.408C967.445,597.18 969.849,595.966 972.077,596.699C983.633,600.501 991.755,609.599 992.887,611.035C996.537,615.664 1001.06,623.366 1002.26,636.557C1002.44,638.563 1001.19,640.421 999.263,641.007C997.336,641.594 995.263,640.748 994.296,638.982C992.924,636.474 988.248,620.671 970.045,614.052C969.555,613.874 963.598,611.43 962.13,610.696C960.032,609.647 959.181,607.092 960.23,604.994C961.279,602.896 963.834,602.044 965.932,603.093C966.346,603.3 967.164,603.66 968.1,604.06Z" style="fill:rgb(6,0,0);"/>
            </g>
            <g transform="matrix(1,0,0,1,-373.963,-484.082)">
                <path d="M949.936,620.121C949.074,619.311 948.552,618.148 948.596,616.874C948.678,614.53 950.648,612.694 952.992,612.776C955.09,612.849 967.246,616.686 975.525,624.789C980.872,630.023 984.97,637.929 987.561,646.433C988.172,648.437 987.231,650.587 985.345,651.498C983.459,652.41 981.19,651.811 979.999,650.088C978.12,647.368 966.857,631.007 945.13,627.903C942.808,627.572 941.192,625.417 941.524,623.095C941.855,620.773 944.01,619.157 946.332,619.489C947.562,619.665 948.763,619.877 949.936,620.121Z" style="fill:rgb(6,0,0);"/>
            </g>
            <g transform="matrix(1,0,0,1,-374.488,-483.013)">
                <path d="M932.465,640.461C932.99,640.438 934.319,640.462 936.833,640.968C936.798,640.955 936.763,640.942 936.728,640.929C934.527,640.117 933.4,637.671 934.211,635.471C935.023,633.27 937.469,632.142 939.67,632.954C972.149,644.936 977.679,660.267 978.943,665.745C979.405,667.745 978.371,669.789 976.486,670.603C974.601,671.416 972.405,670.766 971.266,669.058C969.714,666.731 963.666,658.092 941.343,650.967C933.471,648.455 932.582,649.011 931.938,648.97L930.626,648.714C928.4,647.973 927.196,645.564 927.938,643.338C928.586,641.394 930.506,640.23 932.465,640.461Z" style="fill:rgb(6,0,0);"/>
            </g>
            <g transform="matrix(1,0,0,1,-374.724,-483.623)">
                <path d="M941.614,663.165C934.933,659.411 927.921,656.755 926.56,656.673C924.218,656.533 922.431,654.518 922.571,652.177C922.711,649.835 924.726,648.048 927.067,648.188C928.909,648.299 939.458,651.836 948.289,657.224C954.923,661.271 963.966,670.298 967.844,678.175C968.707,679.927 968.264,682.043 966.77,683.302C965.276,684.561 963.117,684.639 961.536,683.492C952.366,676.84 950.392,675.252 937.456,670.711C926.075,666.715 920.962,667.791 918.045,667.679C915.701,667.589 913.871,665.613 913.961,663.269C914.051,660.925 916.028,659.095 918.372,659.185C921.665,659.312 927.423,658.18 940.271,662.691C940.731,662.852 941.178,663.01 941.614,663.165Z" style="fill:rgb(6,0,0);"/>
            </g>
            <g transform="matrix(1,0,0,1,-373.963,-484.082)">
                <path d="M931.951,688.529C928.286,687.738 924.556,687.231 920.796,686.936C918.458,686.754 916.708,684.706 916.89,682.368C917.073,680.029 919.12,678.279 921.459,678.462C930.401,679.162 939.18,680.979 947.436,684.595C954.533,687.704 960.495,689.291 967.811,697.646C969.065,699.078 969.214,701.169 968.175,702.764C967.137,704.359 965.165,705.07 963.348,704.504C952.294,701.057 941.014,698.059 931.389,697.017C925.515,696.38 920.312,696.44 916.301,697.777C914.076,698.519 911.667,697.315 910.925,695.089C910.183,692.864 911.388,690.455 913.613,689.713C918.504,688.083 924.815,687.787 931.951,688.529Z" style="fill:rgb(6,0,0);"/>
            </g>
            <g transform="matrix(1,0,0,1,-373.963,-484.082)">
                <path d="M923.625,662.112C921.325,661.652 919.831,659.411 920.291,657.111C920.751,654.811 922.992,653.317 925.292,653.777C927.045,654.127 934.102,655.232 935.991,656.09C937.167,656.625 942.21,659.549 943.689,660.289C945.787,661.338 946.639,663.893 945.59,665.991C944.541,668.089 941.986,668.941 939.888,667.892C938.462,667.179 933.608,664.344 932.473,663.828C930.918,663.122 925.069,662.4 923.625,662.112Z" style="fill:rgb(6,0,0);"/>
            </g>
            <g transform="matrix(1,0,0,1,-373.963,-484.082)">
                <path d="M933.735,693.966C931.759,693.893 927.409,693.672 920.523,693.006C918.188,692.78 916.476,690.701 916.702,688.366C916.928,686.031 919.007,684.319 921.342,684.545C931.651,685.543 935.32,685.453 936.215,685.591L938.055,686.267L939.091,687.194L939.738,688.294L940.021,689.413L940.01,690.476L939.453,692.089L938.191,693.488C936.876,694.513 935.144,694.642 933.735,693.966ZM932.443,687.265C932.601,687.093 932.775,686.932 932.965,686.784C932.765,686.94 932.592,687.101 932.443,687.265Z" style="fill:rgb(6,0,0);"/>
            </g>
            <g transform="matrix(1,0,0,1,-373.963,-484.082)">
                <path d="M470.731,639.995C469.412,638.327 469.522,635.896 471.062,634.356C472.72,632.697 475.413,632.697 477.072,634.356C477.432,634.716 478.179,635.769 478.943,637.45C480.793,641.524 484.163,650.903 485.571,656.816C486.114,659.098 484.703,661.392 482.421,661.935C480.139,662.479 477.845,661.067 477.302,658.785C475.862,652.738 472.194,642.692 470.746,640.022C470.742,640.014 470.736,640.004 470.731,639.995Z" style="fill:rgb(6,0,0);"/>
            </g>
            <g transform="matrix(1,0,0,1,-373.963,-484.082)">
                <path d="M459.893,662.226C459.776,662.056 459.669,661.875 459.574,661.684C458.537,659.581 459.402,657.03 461.505,655.992L462.698,655.61L464.157,655.624L465.168,655.945L466.132,656.559L467.148,657.795C467.895,659.033 471.368,665.416 471.721,666.524C474.318,674.686 474.895,674.404 477.067,682.73C477.659,685 476.297,687.323 474.027,687.915C471.758,688.507 469.434,687.145 468.842,684.875C466.727,676.769 466.15,677.049 463.621,669.101C463.353,668.259 460.191,662.744 459.893,662.226Z" style="fill:rgb(6,0,0);"/>
            </g>
            <g transform="matrix(1,0,0,1,-373.963,-484.082)">
                <path d="M440.199,663.849C445.342,669.162 445.868,670.35 452.543,677.406C454.008,678.954 464.851,696.389 468.816,704.448C469.822,706.493 470.408,708.089 470.56,708.92L470.655,709.959L470.515,711.084C469.944,713.359 467.634,714.743 465.359,714.173C464.589,713.98 463.921,713.588 463.396,713.065C461.515,712.896 459.91,711.478 459.585,709.53C458.826,704.973 455.455,698.668 451.335,692.227C445.941,683.793 439.161,675.212 434.287,669.962C433.47,669.116 432.534,668.164 431.433,667.063C429.791,665.421 429.771,662.764 431.389,661.097C433.008,659.431 435.664,659.372 437.354,660.966C438.199,661.762 439.157,662.734 440.199,663.849Z" style="fill:rgb(6,0,0);"/>
            </g>
            <g transform="matrix(1,0,0,1,-373.963,-484.082)">
                <path d="M668.429,870.706C667.185,869.685 666.576,867.996 667.012,866.338C667.608,864.069 669.934,862.711 672.202,863.307L673.905,864.106L675.13,865.373C675.585,866.018 676.443,867.764 679.934,873C681.235,874.952 680.707,877.593 678.755,878.894C676.803,880.195 674.162,879.667 672.861,877.715C670.299,873.871 668.943,871.596 668.429,870.706Z" style="fill:rgb(6,0,0);"/>
            </g>
            <g transform="matrix(1,0,0,1,-373.963,-484.082)">
                <path d="M642.362,870.502C641.238,868.443 641.998,865.859 644.057,864.736C646.117,863.613 648.7,864.373 649.824,866.432C649.808,866.404 649.757,866.311 649.757,866.311C649.757,866.311 653.998,871.267 657.5,875.55C661.754,880.754 666.25,886.855 667.989,891.202C668.86,893.38 667.8,895.855 665.622,896.727C663.444,897.598 660.968,896.537 660.097,894.359C658.277,889.808 652.832,883.165 648.637,878.182C645.372,874.303 642.777,871.264 642.362,870.502Z" style="fill:rgb(6,0,0);"/>
            </g>
            <g transform="matrix(1,0,0,1,-373.963,-484.082)">
                <path d="M613.721,865.705C614.609,864.17 616.408,863.298 618.241,863.668L619.882,864.341C620.394,864.661 621.411,865.472 622.743,866.72C628.153,871.789 640.436,885.163 645.512,895.315C649.781,903.854 660.11,920.068 661.452,922.176C662.695,924.131 662.145,926.721 660.214,928.001C658.283,929.281 655.683,928.778 654.367,926.871C648.424,918.253 637.401,900.025 618.59,881.214C614.171,876.795 607.02,871.134 605.611,870.033C605.516,869.959 605.419,869.885 605.419,869.885C603.809,868.676 603.24,866.452 604.172,864.587C605.221,862.489 607.776,861.638 609.874,862.687C609.89,862.695 611.478,863.904 613.721,865.705Z" style="fill:rgb(6,0,0);"/>
            </g>
        </g>
        <g id="outline-black" serif:id="outline black">
            <g transform="matrix(1,0,0,1,-373.963,-484.082)">
                <path d="M468.566,797.446C469.273,799.683 468.031,802.072 465.794,802.779C463.557,803.486 461.168,802.244 460.461,800.007C459.166,795.91 457.383,777.172 459.002,751.999C461.397,714.788 471.111,663.349 499.92,624.939C539.663,571.948 607.336,526.248 664.309,514.853C666.609,514.393 668.85,515.887 669.31,518.187C669.77,520.487 668.276,522.728 665.976,523.188C610.749,534.233 545.244,578.672 506.72,630.039C478.958,667.054 469.792,716.686 467.485,752.545C465.97,776.085 467.355,793.615 468.566,797.446Z"/>
            </g>
            <g transform="matrix(1,0,0,1,-373.963,-484.082)">
                <path d="M468.163,796.511C468.245,796.597 468.359,796.714 468.453,796.805C473.462,801.672 496.946,819.649 498.874,820.735C523.933,834.861 560.805,862.709 660.285,861.178C727.72,860.141 802.37,830.676 835.115,803.27C885.284,761.281 896.89,739.548 921.653,704.246C923,702.326 925.653,701.86 927.573,703.207C929.494,704.554 929.959,707.207 928.612,709.127C903.431,745.026 891.587,767.09 840.57,809.788C806.816,838.039 729.93,868.608 660.416,869.677C558.28,871.249 520.427,842.643 494.7,828.14C492.898,827.124 473.148,812.124 465.087,805.202C463.213,803.592 461.909,802.329 461.395,801.68L460.763,800.702L460.418,799.78C459.836,797.507 461.209,795.19 463.482,794.609C465.334,794.135 467.215,794.96 468.163,796.511Z"/>
            </g>
            <g transform="matrix(1,0,0,1,-373.963,-484.082)">
                <path d="M661.132,517.611C661.679,516.059 663.106,514.9 664.851,514.78C667.191,514.62 669.221,516.389 669.382,518.729L669.105,520.582C668.953,520.991 668.111,522.649 666.792,525.334C661.813,535.471 649.554,562.053 646.865,591.733C645.113,611.077 647.425,631.781 658.832,649.94C671.152,669.554 694.021,686.048 733.235,695.012C783.921,706.598 821.476,715.23 914.077,703.655C914.997,703.54 920.154,702.667 923.69,701.994C925.994,701.556 928.221,703.071 928.659,705.376C929.097,707.68 927.582,709.907 925.278,710.345C921.546,711.055 916.102,711.968 915.131,712.09C821.021,723.853 782.854,715.073 731.34,703.298C689.202,693.666 664.874,675.538 651.634,654.461C639.184,634.641 636.488,612.08 638.4,590.966C641.209,559.961 653.961,532.176 659.162,521.586C660.08,519.719 660.937,518 661.132,517.611Z"/>
            </g>
            <g transform="matrix(1,0,0,1,-373.963,-484.082)">
                <path d="M656.007,551.134C653.893,552.15 651.351,551.26 650.335,549.146C649.318,547.032 650.208,544.491 652.322,543.474C668.465,535.708 668.11,534.986 685.389,529.922C687.686,529.248 704.263,525.176 714.882,524.354C717.221,524.173 719.266,525.925 719.447,528.263C719.628,530.602 717.877,532.648 715.538,532.829C705.543,533.602 689.942,537.445 687.78,538.079C671.171,542.947 671.524,543.669 656.007,551.134Z"/>
            </g>
            <g transform="matrix(1,0,0,1,-373.963,-484.082)">
                <path d="M917.272,706.395C918.047,708.609 916.879,711.035 914.665,711.81C912.451,712.585 910.024,711.417 909.249,709.203C908.047,705.768 908.135,701.547 908.863,697.601C909.831,692.359 911.833,687.669 912.237,686.726C915.615,678.845 916.852,678.167 920.506,674.722C922.213,673.113 924.905,673.193 926.513,674.9C928.122,676.607 928.043,679.299 926.336,680.908C923.549,683.534 922.625,684.065 920.05,690.074C919.713,690.861 918.03,694.77 917.222,699.144C916.767,701.609 916.521,704.249 917.272,706.395Z"/>
            </g>
            <g transform="matrix(1,0,0,1,-373.963,-484.082)">
                <path d="M710.988,529.082C710.718,526.752 712.39,524.64 714.72,524.37C717.05,524.099 719.161,525.771 719.432,528.101C720.559,537.807 728.303,587.915 794.756,626.176C846.814,656.149 895.468,667.045 915.234,671.405C920.779,672.628 924.274,673.49 925.321,674.014C927.419,675.063 928.271,677.618 927.222,679.716C926.173,681.814 923.618,682.665 921.52,681.616C920.682,681.197 917.841,680.684 913.403,679.706C893.24,675.258 843.619,664.117 790.514,633.542C719.964,592.922 712.185,539.386 710.988,529.082Z"/>
            </g>
            <g transform="matrix(1,0,0,1,-373.963,-484.082)">
                <path d="M723.071,548.154C720.847,548.902 718.435,547.704 717.687,545.481C716.939,543.258 718.137,540.846 720.36,540.098C747.532,530.956 793.93,528.179 816.996,535.868C819.221,536.609 820.425,539.018 819.683,541.244C818.942,543.469 816.533,544.673 814.308,543.931C792.528,536.672 748.728,539.522 723.071,548.154Z"/>
            </g>
            <g transform="matrix(1,0,0,1,-373.963,-484.082)">
                <path d="M917.085,672.71C917.087,673.471 916.885,674.241 916.458,674.937C915.232,676.936 912.613,677.564 910.613,676.338L909.399,675.225L908.677,673.717L908.541,672.139L908.892,670.427C909.959,666.93 915.332,655.799 922.901,645.759C928.093,638.872 934.328,632.541 940.792,629.26C942.884,628.198 945.444,629.034 946.506,631.125C947.567,633.217 946.731,635.777 944.64,636.839C939.193,639.604 934.063,645.073 929.688,650.876C923.044,659.689 918.177,669.376 917.085,672.71ZM916.527,670.608C916.141,669.898 915.601,669.426 915.057,669.092C915.689,669.48 916.184,670.006 916.527,670.608Z"/>
            </g>
            <g transform="matrix(1,0,0,1,-373.963,-484.082)">
                <path d="M811.435,540.395C811.141,538.068 812.791,535.94 815.118,535.646C817.445,535.351 819.574,537.002 819.868,539.329C821.229,550.089 830.685,561.355 841.553,571.402C858.739,587.29 879.91,599.861 883.194,601.7C888.147,604.474 911.828,618.274 944.06,629.018C946.285,629.759 947.49,632.168 946.748,634.393C946.006,636.619 943.597,637.823 941.372,637.081C908.366,626.079 884.113,611.957 879.04,609.116C875.629,607.206 853.636,594.148 835.783,577.644C823.291,566.096 812.999,552.763 811.435,540.395Z"/>
            </g>
            <g transform="matrix(1,0,0,1,-373.963,-484.082)">
                <path d="M941.025,632.318C939.47,634.075 936.782,634.238 935.025,632.684C933.269,631.129 933.106,628.44 934.66,626.684C941.971,618.426 944.423,616.09 957.232,605.096C965.061,598.376 969.946,595.469 981.256,589.891C983.359,588.854 985.91,589.719 986.947,591.823C987.985,593.927 987.119,596.477 985.015,597.514C974.552,602.675 970.011,605.33 962.768,611.546C950.435,622.131 948.064,624.367 941.025,632.318Z"/>
            </g>
            <g transform="matrix(1,0,0,1,-373.963,-484.082)">
                <path d="M915.598,540.457C914.499,538.384 915.289,535.81 917.361,534.71C919.433,533.611 922.008,534.401 923.107,536.473C926.438,542.751 934.37,554.101 945.51,563.823C966.12,581.81 978.966,586.736 984.783,589.161C986.948,590.063 987.974,592.553 987.071,594.719C986.169,596.884 983.678,597.909 981.513,597.007C975.357,594.441 961.735,589.265 939.921,570.227C927.808,559.655 919.22,547.283 915.598,540.457Z"/>
            </g>
            <g transform="matrix(1,0,0,1,-373.963,-484.082)">
                <path d="M820.138,549.753C818.091,549.86 816.209,548.468 815.765,546.4L815.678,545.178L815.874,544.162L816.507,542.924L817.391,542.029L818.329,541.491L819.35,541.201L821.069,541.223C824.088,541.708 841.663,548.414 872.764,546.686C887.857,545.848 913.149,536.813 917.454,534.663C919.552,533.615 922.107,534.467 923.155,536.566C924.203,538.664 923.35,541.219 921.252,542.267C916.626,544.577 889.451,554.272 873.235,555.173C843.666,556.816 823.264,550.751 820.138,549.753ZM823.32,548.056C824.07,547.166 824.382,546.044 824.076,544.616C824.344,545.866 824.032,547.107 823.32,548.056Z"/>
            </g>
            <g transform="matrix(1,0,0,1,-373.963,-484.082)">
                <path d="M922.851,548.922C920.6,548.264 919.306,545.901 919.964,543.65C920.622,541.399 922.985,540.105 925.236,540.763C928.827,541.813 935.803,545.205 968.393,542.242C1017.71,537.759 1033.7,530.738 1038.96,528.401C1041.11,527.449 1043.62,528.415 1044.57,530.559C1045.52,532.702 1044.56,535.216 1042.41,536.169C1036.95,538.595 1020.37,546.052 969.163,550.708C934.184,553.887 926.705,550.048 922.851,548.922Z"/>
            </g>
            <g transform="matrix(1,0,0,1,-373.963,-484.082)">
                <path d="M983.977,592.255C982.903,593.766 980.918,594.448 979.086,593.795C976.877,593.008 975.722,590.575 976.509,588.365C976.547,588.26 977.085,587.106 978.683,585.468C982.023,582.043 992.177,572.884 1011.77,563.881C1022.51,558.948 1035.36,552.489 1052.31,550.868C1054.65,550.645 1056.73,552.359 1056.95,554.694C1057.17,557.029 1055.46,559.106 1053.12,559.329C1037.3,560.843 1025.34,567 1015.32,571.605C995.102,580.894 985.75,590.223 984.027,592.197C984.011,592.215 983.993,592.236 983.977,592.255Z"/>
            </g>
            <g transform="matrix(1,0,0,1,-373.963,-484.082)">
                <path d="M1037,534.394C1035.83,532.358 1036.54,529.76 1038.58,528.595C1040.61,527.431 1043.21,528.139 1044.38,530.175C1044.82,530.942 1045.14,531.83 1045.5,533.042C1046.01,534.813 1046.77,537.631 1049.53,542.858C1052.1,547.721 1055.41,551.776 1055.72,552.093C1057.38,553.752 1057.38,556.445 1055.72,558.104C1054.07,559.762 1051.37,559.762 1049.71,558.104C1049.32,557.714 1045.16,552.798 1042.01,546.827C1039.25,541.6 1038.22,538.433 1037.6,536.335C1037.34,535.461 1037.27,534.861 1037,534.394Z"/>
            </g>
            <g transform="matrix(1,0,0,1,-373.963,-484.082)">
                <path d="M1085.3,533.643C1068.5,534.369 1055.54,535.843 1045.45,539.526C1043.24,540.33 1040.8,539.194 1040,536.99C1039.19,534.787 1040.33,532.345 1042.54,531.541C1053.41,527.572 1067.4,525.883 1085.62,525.122C1100.24,524.511 1108.97,524.853 1128.3,527.768C1130.45,528.093 1132.01,529.998 1131.91,532.176C1131.8,534.354 1130.07,536.099 1127.89,536.214C1121.79,536.537 1083.7,538.506 1053.54,553.586C1051.44,554.635 1048.89,553.784 1047.84,551.686C1046.79,549.588 1047.64,547.033 1049.74,545.984C1061.17,540.269 1073.68,536.343 1085.3,533.643Z"/>
            </g>
            <g transform="matrix(1,0,0,1,-373.963,-484.082)">
                <path d="M1130.17,533.774C1128.28,535.159 1125.62,534.747 1124.23,532.854C1122.85,530.961 1123.26,528.299 1125.15,526.914C1130.79,522.79 1160.99,487.894 1210.12,511.292C1228.11,519.856 1257.02,529.66 1287.94,531.133C1295.59,531.497 1331.41,534.163 1370.07,516.561C1372.21,515.589 1374.73,516.533 1375.7,518.668C1376.67,520.803 1375.73,523.325 1373.59,524.297C1333.08,542.743 1295.56,540.005 1287.54,539.623C1255.33,538.089 1225.2,527.888 1206.47,518.966C1162.27,497.918 1135.24,530.063 1130.17,533.774Z"/>
            </g>
            <g transform="matrix(1,0,0,1,-373.963,-484.082)">
                <path d="M1123.26,536.535C1120.91,536.523 1119.02,534.608 1119.03,532.263C1119.04,529.917 1120.95,528.023 1123.3,528.035C1129.27,528.066 1147.12,524.881 1161.19,527.615C1172.25,529.763 1181.05,535.392 1182.71,547.088C1183.31,551.356 1182.36,557.629 1180.5,565.146C1177.97,575.393 1173.84,588.215 1170.93,601.376C1168.6,611.94 1167.03,622.727 1167.87,632.496C1168.65,641.56 1171.51,649.725 1178.13,655.736C1192.28,668.591 1212.54,687.026 1249.7,686.611C1252.05,686.585 1253.97,688.468 1254,690.813C1254.02,693.159 1252.14,695.084 1249.8,695.111C1209.68,695.559 1187.69,675.907 1172.41,662.027C1159.53,650.322 1157.56,632.163 1160.16,613.111C1162.35,597.122 1167.63,580.532 1171.17,567.274C1173.32,559.239 1174.9,552.573 1174.29,548.282C1173.19,540.545 1166.89,537.38 1159.57,535.959C1146.08,533.339 1128.98,536.564 1123.26,536.535Z"/>
            </g>
        </g>
    </g>
    <g transform="matrix(0.731714,0,0,0.731714,-148.76,-268.096)">
        <g id="name">
            <g transform="matrix(220.606,0,0,220.606,1380.13,956.335)">
            </g>
            <text x="891.845px" y="956.335px" style="font-family:'Futura-CondensedMedium', 'Futura', sans-serif;font-weight:500;font-stretch:condensed;font-size:220.606px;">TRIOPS</text>
        </g>
    </g>
</svg>
